<svg aria-hidden="true" style="width:0;height:0;position:absolute;overflow:hidden" xmlns="http://www.w3.org/2000/svg"><defs><symbol id="icon-Frame" viewBox="0 0 105 32"><path fill="#f90" style="fill:var(--color1,#f90)" d="M64.653 24.561c-6.055 4.469-14.832 6.845-22.392 6.845-10.595 0-20.135-3.917-27.353-10.434-.567-.513-.061-1.212.62-.816 7.789 4.533 17.422 7.262 27.37 7.262 6.71 0 14.087-1.393 20.876-4.271 1.024-.435 1.883.674.88 1.414z"/><path fill="#f90" style="fill:var(--color1,#f90)" d="M67.171 21.684c-.774-.991-5.118-.469-7.07-.237-.591.071-.684-.446-.15-.819 3.467-2.434 9.145-1.731 9.806-.917.664.823-.175 6.516-3.423 9.233-.499.417-.975.194-.752-.356.73-1.827 2.366-5.912 1.59-6.904z"/><path fill="#221f1f" style="fill:var(--color2,#221f1f)" d="M60.239 3.432c.001.353.273.594.612.594l5.54.002-6.361 9.128c-.389.584-.395 1.24-.395 1.625v2.399c0 .347.386.746.754.548 3.608-1.916 7.938-1.729 11.201-.019.4.209.782-.195.782-.541v-2.525c-.034-.34-.145-.689-.562-.922-1.852-1.04-4.01-1.347-6.047-1.299l5.49-7.841c.509-.704.795-1.148.8-1.489V1.063c0-.35-.273-.596-.611-.596L60.84.468h-.02a.583.583 0 0 0-.583.583v2.383zM81.179.161c4.786 0 7.375 4.11 7.375 9.336 0 5.049-2.858 9.057-7.375 9.057-4.696 0-7.257-4.111-7.257-9.232 0-5.156 2.589-9.161 7.257-9.161zm.029 3.379c-2.379 0-2.529 3.239-2.529 5.26s-.029 6.339 2.5 6.339c2.499 0 2.618-3.483 2.618-5.608 0-1.393-.059-3.065-.482-4.39-.361-1.148-1.083-1.601-2.107-1.601zm-29.42 6.759v-.698c-2.332 0-4.797.5-4.797 3.248 0 1.396.723 2.339 1.962 2.339.904 0 1.719-.559 2.232-1.466.633-1.117.603-2.165.603-3.422zm3.252 7.864c-.213.192-.603.198-.762.075-1.102-.852-1.849-2.149-1.849-2.149-1.771 1.804-3.025 2.347-5.317 2.347-2.716 0-4.829-1.679-4.829-5.029 0-2.618 1.419-4.399 3.441-5.271 1.749-.77 4.194-.909 6.065-1.118 0 0 .155-2.021-.392-2.758-.426-.571-1.146-.838-1.81-.838-1.196-.006-2.352.646-2.582 1.898-.065.357-.33.659-.608.628l-3.089-.337a.57.57 0 0 1-.481-.677l-.001.004C43.545 1.146 46.969 0 50.04 0c1.568 0 3.62.419 4.858 1.607 1.568 1.466 1.418 3.42 1.418 5.551v5.025c0 1.513.627 2.175 1.217 2.989.206.296.252.643-.01.857-.659.553-2.482 2.136-2.482 2.136zM9.504 10.299v-.698c-2.331 0-4.796.5-4.796 3.248 0 1.396.723 2.339 1.962 2.339.904 0 1.719-.559 2.232-1.466.633-1.117.602-2.165.602-3.422zm3.252 7.864c-.213.192-.602.198-.761.075-1.103-.852-1.849-2.149-1.849-2.149-1.771 1.804-3.025 2.347-5.318 2.347C2.114 18.435 0 16.756 0 13.406c0-2.618 1.419-4.399 3.439-5.271 1.75-.77 4.195-.909 6.065-1.118 0 0 .157-2.021-.392-2.758-.425-.571-1.146-.838-1.809-.838-1.198-.006-2.353.646-2.582 1.898-.066.357-.33.659-.608.628L1.025 5.61a.567.567 0 0 1-.481-.678l-.001.004C1.261 1.145 4.685-.001 7.757-.001c1.568 0 3.62.419 4.858 1.607 1.568 1.466 1.418 3.42 1.418 5.551v5.025c0 1.513.627 2.175 1.216 2.989.207.296.253.643-.01.857a315.51 315.51 0 0 0-2.481 2.136zm9.433-9.328c0-1.917-.09-4.564 2.227-4.564 2.288 0 1.988 2.717 1.988 4.564l.003 8.776c0 .316.256.575.579.593H30.222c.331 0 .6-.265.608-.594V8.834c0-.941-.029-2.334.302-3.17s1.144-1.359 1.927-1.359c.933 0 1.656.314 1.897 1.428.15.662.09 2.405.09 3.101l.002 8.776c0 .316.254.575.578.593h3.236c.331 0 .6-.265.607-.594v-.001l.004-10.447c0-1.777.21-3.797-.815-5.191C37.756.716 36.281.159 34.925.159c-1.896 0-3.671.976-4.455 3.066-.904-2.091-2.168-3.066-4.185-3.066-1.987 0-3.462.976-4.244 3.066h-.061V1.11a.602.602 0 0 0-.602-.602H18.367a.6.6 0 0 0-.601.601v16.492a.6.6 0 0 0 .601.601h3.221a.602.602 0 0 0 .602-.601V8.833zm73.203 8.767v.001c0 .333-.27.602-.602.602h-3.221a.602.602 0 0 1-.601-.602V1.112c0-.333.27-.603.601-.603h2.978c.349 0 .603.281.603.472v2.523h.062C96.115 1.24 97.379.16 99.607.16c1.447 0 2.861.523 3.764 1.951.845 1.323.845 3.552.845 5.155v10.417a.614.614 0 0 1-.607.522h-3.246a.607.607 0 0 1-.573-.518v-.003l.005-10.002c0-3.347-1.282-3.445-2.021-3.445-.861 0-1.554.673-1.858 1.3-.45 1.011-.523 2.044-.523 3.159v8.907z"/></symbol><symbol id="icon-frame-1" viewBox="0 0 373 32"><path fill="#fff" style="fill:var(--color3,#fff)" d="M371.334 27.36c-1.009 0-2.018 1.008-2.018 2.016 0 1.26 1.009 2.016 2.018 2.016s2.018-1.008 2.018-2.016c0-1.259-.756-2.016-2.018-2.016zm-71.892 4.032h9.082v-.756l-1.009-.252c-1.009-.252-1.261-.755-1.261-2.016V16.275h2.017c1.262 0 2.018.252 2.018 3.024l.253 5.795c.252 5.039 1.765 6.55 4.288 6.55s3.279-1.763 3.279-4.283v-1.008H317.1v.755c0 1.764-.252 2.772-.756 2.772s-.505-.505-.756-2.521l-.253-4.031c-.252-5.291-1.009-7.055-5.045-7.811 3.785-1.008 6.054-3.779 6.054-7.558 0-5.04-4.036-7.559-7.82-7.559h-15.388v.756l.757.252c1.514.252 1.765 1.26 1.765 4.787v18.142c0 4.032-1.009 6.048-3.783 6.048-2.271 0-3.532-1.009-3.532-5.545V3.422c0-1.261.505-1.513 1.514-1.764l1.261-.252V.649h-9.333v.756l1.009.252c1.009.252 1.262.503 1.262 1.764v21.165c0 4.787 2.774 7.307 6.811 7.307 4.288 0 6.306-2.519 6.306-7.558V4.682c0-2.521.505-3.276 2.523-3.276 1.514 0 2.27.503 2.27 2.016v25.197c0 1.259-.505 1.763-1.261 2.016l-1.009.252v.755h-.253v-.252zm60.794-27.968c0-1.261.505-1.764 1.261-1.764l1.261-.252V.651h-9.332v.756l1.008.252c1.009.252 1.262.503 1.262 1.764v25.449c0 1.26-.505 1.763-1.766 1.763-1.513 0-1.765-.503-2.522-3.275L345.605.148h-1.765l-5.55 26.205c-.505 3.023-1.009 3.527-2.27 4.032l-.757.251v.757h6.307v-.757l-1.009-.252c-1.262-.252-1.766-1.008-1.009-4.284l3.279-16.629 3.532 17.89c.505 2.519.505 3.023-1.514 3.527l-1.009.252v.756h23.964V21.565h-.756c-.505 4.787-1.514 9.07-5.297 9.07h-1.766l.253-27.212zm-14.379 19.653v-1.26h-6.054l-.252 1.259h6.306zm-25.226-19.15v21.669c0 3.275 0 4.787-1.514 5.039l-.756.253v.755h6.559v-.755c-2.775-.505-2.775-1.513-2.775-4.788V5.44l-1.009-1.007 11.1 27.212h1.765V6.447c0-3.779 0-4.535 1.765-5.039l.505-.252V.399h-6.811v.757l.757.252c2.27.503 2.27 1.26 2.27 4.787v15.622l.505-.252L324.668.146h-6.306v.757l.505.252c.505.252 1.009 1.008 1.765 2.771zm-14.377-2.771h1.765c1.765 0 3.532 1.259 3.532 7.055 0 6.048-1.262 6.55-3.785 6.55h-1.513V1.156zm-30.271 14.362c0 12.85-1.009 14.866-3.532 14.866-2.27 0-3.279-1.763-3.279-14.613 0-12.347 1.009-14.363 3.279-14.363 2.523-.252 3.532 1.763 3.532 14.11zm5.045.252c0-8.566-2.774-15.621-8.324-15.621s-8.324 7.055-8.324 15.622c0 8.565 2.774 15.621 8.324 15.621 5.55.252 8.324-6.803 8.324-15.622zM261.604 3.424c0-1.261.253-1.764 1.262-1.764l1.009-.252V.651h-9.333v.756l1.009.252c1.009.252 1.514.503 1.514 1.764v21.92c0 3.024-.253 5.545-2.523 5.545-1.514 0-2.523-1.008-2.523-2.016.252-1.511 2.523-1.26 2.774-3.527.253-1.513-1.009-2.268-1.765-2.519-1.514-.253-3.027 1.007-3.027 3.275 0 3.024 2.018 5.795 5.297 5.795 3.785 0 6.559-2.519 6.559-7.307l-.253-21.165zm-151.098 0c0-1.261.505-1.764 1.261-1.764l1.262-.252V.651h-9.333v.756l1.009.252c1.009.252 1.261.503 1.261 1.764v25.449c0 1.26-.505 1.763-1.765 1.763-1.514 0-1.766-.503-2.523-3.275L95.875.148H94.11l-5.549 26.205c-.505 3.023-1.009 3.527-2.271 4.032l-.757.251v.757h6.308v-.757l-1.009-.252c-1.261-.252-1.765-1.008-1.009-4.284l3.28-16.629 3.531 17.89c.505 2.519.505 3.023-1.514 3.527l-1.009.252v.756h24.217V21.565h-.756c-.505 4.787-1.514 9.07-5.298 9.07h-1.765V3.423zM236.38 1.156h1.009c2.774 0 3.783 4.535 4.036 9.071h.756V-.104h-16.397v10.331h.757c.252-4.788 1.261-9.071 4.036-9.071h1.009v26.96c0 1.26-.505 1.764-1.262 2.016l-1.261.252v.756h9.585v-.756l-1.514-.252c-.756-.252-1.261-.503-1.261-1.763l.505-27.213zM215.695 15.77h1.514c2.018 0 2.523.757 3.027 5.796h.756V9.219h-.756c-.505 3.779-1.009 5.542-3.027 5.542h-1.514V1.407h3.027c3.532 0 4.288 4.285 4.793 9.072h.756V.147h-15.387v.755l1.009.253c1.009.252 1.261 1.008 1.261 2.016v25.197c0 1.259-.505 1.763-1.261 2.016l-1.009.251v.757h15.891V21.06h-.505c-.505 4.787-1.009 9.071-5.044 9.071h-3.027l-.505-14.362zm-16.901 0h1.514c2.018 0 2.523.757 3.027 5.796h.757V9.219h-.757c-.505 3.779-1.009 5.542-3.027 5.542h-1.514V1.407h3.027c3.532 0 4.288 4.537 4.793 9.072h.757V.147h-15.892v.755l1.514.253c1.009.252 1.262 1.008 1.262 2.016v25.197c0 1.259-.505 1.763-1.262 2.016l-1.009.251v.757h15.892V21.06h-.757c-.505 4.787-1.009 9.071-5.044 9.071h-3.027v-14.11h-.253v-.253zM180.127 1.156h1.262c1.765 0 3.532 1.259 3.532 7.055 0 5.795-1.262 6.55-3.785 6.55h-1.009V1.156zm-6.811 30.236h9.082v-.756l-1.009-.252c-1.009-.252-1.262-.755-1.262-2.016V16.275h1.766c1.261 0 2.018.503 2.018 3.024l.252 5.795c.253 5.039 1.765 6.55 4.288 6.55s3.28-1.763 3.28-4.283v-1.008h-1.009v.755c0 1.764-.253 2.772-.757 2.772s-.505-.505-.756-2.521l-.253-4.031c-.252-5.543-1.009-7.055-5.044-7.811 3.783-1.008 6.053-3.779 6.053-7.558 0-5.04-4.036-7.559-7.82-7.559h-8.576v.756l1.009.252c1.009.252 1.261.503 1.261 1.763v25.198c0 1.259-.505 1.763-1.261 2.016l-1.009.251v1.008h-.253v-.252zm-6.81-30.236h1.009c2.774 0 3.783 4.535 4.036 9.071h.756V-.104h-16.396v10.331h.756c.253-4.788 1.261-9.071 4.036-9.071h1.009v26.96c0 1.26-.505 1.764-1.262 2.016l-1.261.252v.756h9.585v-.756l-1.261-.252c-1.261-.252-1.261-1.26-1.261-2.016V1.156h.252zm-10.343 22.173c0-9.071-10.09-11.59-10.09-18.645 0-1.513.505-3.527 2.774-3.527 3.279 0 4.541 4.283 5.045 9.323h.756V.149h-.505c-.252 1.008-.505 1.511-1.261 1.511-1.009 0-1.514-1.511-4.036-1.511-3.783 0-6.306 3.275-6.306 7.307 0 7.559 10.09 10.835 10.09 18.142 0 3.275-1.514 5.039-3.532 5.039-3.026 0-5.044-3.527-5.549-9.323h-.757v10.331h.505c.505-1.511 1.009-1.511 1.514-1.511.757 0 1.766 1.764 4.288 1.764 3.532-.505 7.063-3.78 7.063-8.567zM126.398 3.424c0-1.261.505-1.764 1.261-1.764l1.262-.252V.651h-9.333v.756l1.008.252c1.009.252 1.262.503 1.262 1.764V28.62c0 1.259-.505 1.763-1.262 2.016l-1.008.252v.755h14.63V21.312h-.757c-.505 4.787-1.514 9.071-5.297 9.071h-1.765V3.424zM96.38 23.077v-1.26h-6.054l-.252 1.259h6.306zm-26.236 8.315h2.018L76.45 8.966h-.503l4.541 22.426h1.515l5.549-26.205c.505-2.771 1.009-3.779 2.018-4.032l.757-.252V.149H84.02v.755l1.009.253c1.261.252 1.765 1.007 1.009 4.283l-3.532 17.638h.505L79.48 4.433c-.253-1.764-.506-3.276 1.008-3.529l1.009-.252v-.755h-8.576V.65l.503.252c1.01.253 1.01.756 1.515 2.521l1.513 6.803-.252-4.032-3.027 16.378h.505L70.147 4.431c-.506-1.764-.506-3.276 1.008-3.529l.757-.252v-.755h-8.829V.65l.756.252c.757.253 1.262.505 1.765 3.024l4.541 27.465zM45.931 15.77h1.513c2.018 0 2.523.757 3.027 5.796h.757V9.219h-.757c-.505 3.779-1.009 5.542-3.027 5.542h-1.513V1.407h3.026c3.532 0 4.288 4.537 4.794 9.072h.756V.147H39.118v.755l1.009.253c1.009.252 1.262 1.008 1.262 2.016v25.197c0 1.259-.505 1.763-1.262 2.016l-1.009.251v.757h16.146V21.06h-.757c-.505 4.787-1.009 9.071-5.045 9.071h-3.026v-14.11h-.505v-.253zM17.425 31.392h9.081v-.756l-1.009-.252c-.757-.252-1.261-.755-1.261-2.016V16.023h6.811V28.37c0 1.259-.505 1.763-1.262 2.016l-1.009.251v.757h9.082v-.757l-1.009-.252c-1.009-.252-1.262-.755-1.262-2.016V3.172c0-1.259.506-1.763 1.262-1.763l1.009-.252V.4h-9.082v.757l1.262.252c.757.252 1.261.503 1.261 1.763v11.59h-6.811V3.171c0-1.259.505-1.511 1.262-1.763l1.008-.252V.399h-9.333v.757l1.01.252c1.008.252 1.261.503 1.261 1.763v25.198c0 1.259-.505 1.763-1.261 2.016l-1.01.251v.757zM10.613 1.156h1.009c2.775 0 3.785 4.535 4.036 9.071h.757V-.104H.018v10.331h1.009c.252-4.788 1.261-9.071 4.036-9.071h1.009v26.96c0 1.26-.505 1.764-1.262 2.016l-1.261.252v.756h9.585v-.756l-1.514-.252c-.757-.252-1.261-.503-1.261-1.763l.252-27.213z"/></symbol><symbol id="icon-Frame-2" viewBox="0 0 32 32"><path fill="none" stroke="#fefefe" style="stroke:var(--color4,#fefefe)" stroke-width=".608" d="M10.537.39h10.927c5.604 0 10.146 4.543 10.146 10.147v10.927c0 5.603-4.543 10.146-10.147 10.146H10.537C4.933 31.61.39 27.066.39 21.463V10.537C.39 4.933 4.934.39 10.537.39z"/><path fill="none" stroke="#fefefe" style="stroke:var(--color4,#fefefe)" stroke-width=".608" d="M18.721 10.268a5.312 5.312 0 0 0-2.734-.749h-.008c-.994 0-1.926.269-2.725.738m7.471-1.849a7.964 7.964 0 0 0-4.744-1.553h-.013.001-.013a7.985 7.985 0 0 0-4.728 1.541l.023-.016M18.035 24.755h-4.071a3.83 3.83 0 0 1-3.829-3.829v-4.071a3.83 3.83 0 0 1 3.829-3.829h4.071a3.829 3.829 0 0 1 3.829 3.829v4.071a3.829 3.829 0 0 1-3.829 3.829z"/><path fill="none" stroke="#fefefe" style="stroke:var(--color4,#fefefe)" stroke-width=".608" d="M14.287 18.89a1.713 1.713 0 0 1 3.426 0 1.713 1.713 0 0 1-3.426 0z"/></symbol><symbol id="icon-Frame-3" viewBox="0 0 32 32"><path fill="none" stroke="#2468ff" style="stroke:var(--color5,#2468ff)" stroke-linejoin="round" stroke-linecap="round" stroke-width=".81" d="M23.668 19.064a3.367 3.367 0 0 0-3.363-3.369h-3.671L16.125 9.1a1.154 1.154 0 0 0-2.304.089v0l.01 13.244-2.341-2.05a2.47 2.47 0 0 0-1.637-.616c-.594 0-1.14.209-1.567.557l.005-.004s4.103 5.015 7.038 6.406"/><path fill="none" stroke="#2468ff" style="stroke:var(--color5,#2468ff)" stroke-linejoin="round" stroke-linecap="round" stroke-width=".81" d="M11.106 11.369V7.771a2.21 2.21 0 0 1 2.209-2.211h3.314a2.21 2.21 0 0 1 2.209 2.21v3.6"/><path fill="none" stroke="#2468ff" style="stroke:var(--color5,#2468ff)" stroke-width=".81" d="M21.463.39H10.536C4.932.39.39 4.933.39 10.537v10.927c0 5.604 4.543 10.146 10.147 10.146h10.927c5.604 0 10.146-4.543 10.146-10.147V10.537C31.61 4.933 27.067.391 21.463.391z"/></symbol><symbol id="icon-Frame-4" viewBox="0 0 32 32"><path fill="none" stroke="#2468ff" style="stroke:var(--color5,#2468ff)" stroke-linejoin="round" stroke-linecap="round" stroke-width=".81" d="m12.479 15.473 2.328 2.322 4.815-4.803"/><path fill="none" stroke="#2468ff" style="stroke:var(--color5,#2468ff)" stroke-linejoin="round" stroke-linecap="round" stroke-width=".81" d="M16.541 26.712c1.902-1.05 8.687-5.634 8.954-17.72a1.027 1.027 0 0 0-.679-.988c-2.573-.887-5.566-1.399-8.767-1.399h.003c-3.2 0-6.193.513-8.767 1.399-.415.143-.689.55-.679.988.267 12.086 7.052 16.67 8.953 17.719a1.002 1.002 0 0 0 .987-.002l-.005.003z"/><path fill="none" stroke="#2468ff" style="stroke:var(--color5,#2468ff)" stroke-width=".81" d="M21.463.39H10.536C4.932.39.39 4.933.39 10.537v10.927c0 5.604 4.543 10.146 10.147 10.146h10.927c5.604 0 10.146-4.543 10.146-10.147V10.537C31.61 4.933 27.067.391 21.463.391z"/></symbol><symbol id="icon-Frame-5" viewBox="0 0 32 32"><path fill="none" stroke="#2468ff" style="stroke:var(--color5,#2468ff)" stroke-width=".81" d="M21.463.39H10.536C4.932.39.39 4.933.39 10.537v10.927c0 5.604 4.543 10.146 10.147 10.146h10.927c5.604 0 10.146-4.543 10.146-10.147V10.537C31.61 4.933 27.067.391 21.463.391z"/><path fill="none" stroke="#2468ff" style="stroke:var(--color5,#2468ff)" stroke-linejoin="round" stroke-linecap="round" stroke-width=".81" d="M8.973 14.46v-1.932c0-2.177 1.631-3.942 3.643-3.942h6.671c2.012 0 3.642 1.765 3.642 3.943v1.932M8.973 16.138v3.611c0 2.177 1.631 3.942 3.643 3.942h6.671c2.012 0 3.642-1.765 3.642-3.942v-3.611"/><path fill="none" stroke="#2468ff" style="stroke:var(--color5,#2468ff)" stroke-linejoin="round" stroke-linecap="round" stroke-width=".81" d="m10.738 12.55-1.765 1.911-1.765-1.911m13.957 5.498 1.764-1.909 1.765 1.909"/></symbol><symbol id="icon-Frame-6" viewBox="0 0 100 32"><path fill="#00b68c" style="fill:var(--color6,#00b68c)" d="M13.196 12.866h5.938v5.938h-5.938z"/><path fill="#fff" style="fill:var(--color3,#fff)" d="M16.819 17.155H16.4v-2.781l-.841.309v-.379l1.195-.448h.065v3.299z"/><path fill="#999" style="fill:var(--color7,#999)" d="M21.706 16.051h11.876v.33H21.706zm14.253-3.185h5.938v5.938h-5.938z"/><path fill="#fff" style="fill:var(--color3,#fff)" d="M40.033 17.155h-2.152v-.3l1.136-1.262c.169-.191.284-.346.347-.464a.77.77 0 0 0 .097-.372c0-.172-.052-.312-.156-.422s-.242-.165-.415-.165c-.208 0-.369.059-.485.178-.114.117-.172.281-.172.492h-.417c0-.302.097-.546.291-.733.195-.186.456-.28.782-.28.305 0 .546.081.724.242.178.159.266.372.266.638 0 .323-.206.708-.618 1.155l-.88.954h1.648v.34z"/><path fill="#999" style="fill:var(--color7,#999)" d="M44.201 16.051h11.876v.33H44.201zm14.191-3.185h5.938v5.938h-5.938z"/><path fill="#fff" style="fill:var(--color3,#fff)" d="M60.921 15.31h.313c.197-.003.352-.055.465-.155s.169-.237.169-.408c0-.385-.192-.577-.575-.577a.599.599 0 0 0-.433.156.537.537 0 0 0-.16.408h-.417c0-.26.095-.476.284-.647.191-.173.433-.259.726-.259.31 0 .553.082.728.246s.264.392.264.684c0 .143-.047.281-.14.415s-.221.237-.371.298l-.006.002a.8.8 0 0 1 .417.284.788.788 0 0 1 .149.485c0 .295-.096.529-.289.702s-.443.259-.751.259-.559-.083-.753-.251-.289-.387-.289-.66h.419c0 .173.056.311.169.415s.264.155.453.155c.201 0 .356-.052.462-.158s.16-.256.16-.453c0-.191-.059-.338-.176-.44s-.286-.155-.507-.158h-.313v-.34z"/><path fill="#999" style="fill:var(--color7,#999)" d="M66.696 16.051h11.876v.33H66.696zm14.129-3.185h5.938v5.938h-5.938z"/><path fill="#fff" style="fill:var(--color3,#fff)" d="M84.178 16.052h.456v.341h-.456v.762h-.419v-.762h-1.495v-.246l1.47-2.275h.444v2.181zm-1.441 0h1.022v-1.61l-.05.09-.972 1.52z"/></symbol><symbol id="icon-Frame-7" viewBox="0 0 32 32"><path stroke-linejoin="round" stroke-linecap="round" stroke-width="1.111" d="M28.804 11.703c0 6.172-5.941 11.177-13.272 11.177-7.329 0-13.271-5.004-13.271-11.177S8.203.526 15.532.526c7.331 0 13.272 5.004 13.272 11.177zM12.199 25.807l-3.381 5.597-2.027-5.157-6.165 1.694 3.38-5.595m14.86 3.461 3.382 5.597 2.027-5.157 6.166 1.694-3.381-5.595"/></symbol><symbol id="icon-Frame-8" viewBox="0 0 32 32"><path stroke-linejoin="round" stroke-linecap="round" stroke-width="1.111" d="M20.6 5.162a4.636 4.636 0 0 1-9.272-.001 4.636 4.636 0 1 1 9.272 0zM.526 31.177h30.878m-7.968-2.806v-5.837c0-.852-.692-1.544-1.544-1.544H10.038c-.852 0-1.543.692-1.543 1.544v5.836"/><path stroke-linejoin="round" stroke-linecap="round" stroke-width="1.111" d="M27.664 28.338a3.47 3.47 0 0 0 .852-2.284c0-.462-.09-.903-.253-1.306l.008.023-2.708-6.849c-.93-2.306-3.149-3.904-5.742-3.905h-7.712a6.177 6.177 0 0 0-5.728 3.863l-.015.041-2.708 6.849a3.42 3.42 0 0 0-.244 1.282c0 .876.323 1.676.856 2.289l-.004-.004"/></symbol><symbol id="icon-Frame-9" viewBox="0 0 32 32"><path fill="none" stroke="#231f20" style="stroke:var(--color8,#231f20)" stroke-linejoin="round" stroke-linecap="round" stroke-width="1.111" d="M1.228 22.308V.77h22.274c.625 0 1.175.588 1.351 1.445l1.796 10.794 3.327 1.733c.447.355.725 1.028.725 1.76v5.805m-14.737.001V4.872m11.631 21.537h3.809m-20.052 0h9.227m-20.053 0h3.808"/><path fill="none" stroke="#231f20" style="stroke:var(--color8,#231f20)" stroke-linejoin="round" stroke-linecap="round" stroke-width="1.111" d="M11.353 26.41c0 2.832-1.571 5.128-3.508 5.128s-3.509-2.296-3.509-5.128 1.572-5.128 3.509-5.128c1.938 0 3.508 2.296 3.508 5.128z"/><path d="M9.16 26.41c0 1.062-.589 1.924-1.316 1.924s-1.316-.862-1.316-1.924c0-1.061.589-1.923 1.316-1.923s1.316.862 1.316 1.923z"/><path fill="none" stroke="#231f20" style="stroke:var(--color8,#231f20)" stroke-linejoin="round" stroke-linecap="round" stroke-width="1.111" d="M27.595 26.41c0 2.832-1.572 5.128-3.508 5.128s-3.509-2.296-3.509-5.128 1.572-5.128 3.509-5.128c1.938 0 3.508 2.296 3.508 5.128z"/><path d="M25.402 26.41c0 1.062-.589 1.924-1.316 1.924s-1.316-.862-1.316-1.924c0-1.061.589-1.923 1.316-1.923s1.316.862 1.316 1.923z"/><path fill="none" stroke="#231f20" style="stroke:var(--color8,#231f20)" stroke-linejoin="round" stroke-linecap="round" stroke-width="1.111" d="M26.651 13.008h-6.812V4.871h5.457"/></symbol><symbol id="icon-Frame-10" viewBox="0 0 32 32"><path stroke-linejoin="round" stroke-linecap="round" stroke-width="1.111" d="M4.036 3.68H2.255C1.3 3.68.526 4.566.526 5.66v.004c0 3.949 1.688 7.591 4.31 9.968M27.895 3.68h1.78c.954 0 1.728.886 1.728 1.98v.004c0 3.949-1.688 7.591-4.31 9.968M8.26 30.185h15.412m-7.708-8.888v8.889"/></symbol><symbol id="icon-Group" viewBox="0 0 32 32"><path stroke-width=".41" d="M21.739.24H10.672C4.996.24.395 4.786.395 10.393v10.934c0 5.607 4.601 10.153 10.277 10.153h11.067c5.675 0 10.276-4.546 10.276-10.153V10.394c0-5.607-4.601-10.153-10.277-10.153z"/><path fill="none" stroke="#fff" style="stroke:var(--color3,#fff)" stroke-linejoin="round" stroke-linecap="round" stroke-width=".646" d="M12.756 21.119h6.576m-5.637 1.64h4.697m-.94 1.64h-2.818m4.67-4.92a5.3 5.3 0 0 1 .644-2.53l1.39-2.569.025-.044.008-.017h-.003a4.49 4.49 0 0 0 .443-1.954v0c0-2.814-2.582-5.095-5.767-5.095s-5.767 2.281-5.767 5.095c0 .693.159 1.352.443 1.954h-.002l.009.016c.007.016.016.03.025.046l1.39 2.568c.404.731.643 1.603.643 2.531v0"/></symbol><symbol id="icon-Group-1" viewBox="0 0 32 32"><path fill="none" stroke="#fff" style="stroke:var(--color3,#fff)" stroke-width=".41" d="M21.739.24H10.672C4.996.24.395 4.786.395 10.393v10.934c0 5.607 4.601 10.153 10.277 10.153h11.067c5.675 0 10.276-4.546 10.276-10.153V10.394c0-5.607-4.601-10.153-10.277-10.153z"/><path fill="none" stroke="#fff" style="stroke:var(--color3,#fff)" stroke-linejoin="round" stroke-linecap="round" stroke-width=".646" d="M22.388 21.968c-3.403 3.362-8.921 3.362-12.325 0-1.576-1.55-2.553-3.705-2.553-6.088s.977-4.538 2.552-6.087l.001-.001c3.403-3.363 8.922-3.363 12.325 0 1.576 1.55 2.553 3.705 2.553 6.088s-.977 4.538-2.551 6.087l-.001.001z"/><path fill="none" stroke="#fff" style="stroke:var(--color3,#fff)" stroke-linejoin="round" stroke-linecap="round" stroke-width=".646" d="M18.866 20.054a3.744 3.744 0 0 1-1.188.801l-.024.009a3.72 3.72 0 0 1-1.447.288 3.752 3.752 0 0 1-1.448-.288l.025.009a3.767 3.767 0 0 1-1.218-.803h0a3.684 3.684 0 0 1-.803-1.179l-.009-.024a3.588 3.588 0 0 1-.282-1.406c0-.517.107-1.008.301-1.454l-.009.024a3.72 3.72 0 0 1 .82-1.197l.001-.001a3.747 3.747 0 0 1 2.619-1.063h.017-.001a3.745 3.745 0 0 1 2.629 1.081h0a3.657 3.657 0 0 1 1.094 2.596V17.457a3.656 3.656 0 0 1-1.076 2.595h0zM16.225 16.215v2.46M17.106 11.36a1.25 1.25 0 0 1-.872.353h-.007 0a1.248 1.248 0 0 1-.875-.361h0a1.218 1.218 0 0 1-.365-.864v0-.004c0-.337.136-.642.357-.863h0a1.25 1.25 0 0 1 .872-.353h.006c.328.002.643.131.875.361.224.22.363.526.365.864v.004c0 .337-.136.642-.357.863h0z"/></symbol></defs></svg>