<svg aria-hidden="true" style="position: absolute; width: 0; height: 0; overflow: hidden;" version="1.1" xmlns="http://www.w3.org/2000/svg" xmlns:xlink="http://www.w3.org/1999/xlink">
<defs>
<symbol id="icon-Frame" viewBox="0 0 105 32">
<path fill="#f90" style="fill: var(--color1, #f90)" d="M64.653 24.561c-6.055 4.469-14.832 6.845-22.392 6.845-10.595 0-20.135-3.917-27.353-10.434-0.567-0.513-0.061-1.212 0.62-0.816 7.789 4.533 17.422 7.262 27.37 7.262 6.71 0 14.087-1.393 20.876-4.271 1.024-0.435 1.883 0.674 0.88 1.414z"></path>
<path fill="#f90" style="fill: var(--color1, #f90)" d="M67.171 21.684c-0.774-0.991-5.118-0.469-7.070-0.237-0.591 0.071-0.684-0.446-0.15-0.819 3.467-2.434 9.145-1.731 9.806-0.917 0.664 0.823-0.175 6.516-3.423 9.233-0.499 0.417-0.975 0.194-0.752-0.356 0.73-1.827 2.366-5.912 1.59-6.904z"></path>
<path fill="#221f1f" style="fill: var(--color2, #221f1f)" d="M60.239 3.432c0.001 0.353 0.273 0.594 0.612 0.594l5.54 0.002-6.361 9.128c-0.389 0.584-0.395 1.24-0.395 1.625v2.399c0 0.347 0.386 0.746 0.754 0.548 3.608-1.916 7.938-1.729 11.201-0.019 0.4 0.209 0.782-0.195 0.782-0.541v-2.525c-0.034-0.34-0.145-0.689-0.562-0.922-1.852-1.040-4.010-1.347-6.047-1.299l5.49-7.841c0.509-0.704 0.795-1.148 0.8-1.489v-2.029c0-0.35-0.273-0.596-0.611-0.596l-10.602 0.001c-0.007-0-0.013-0-0.020-0-0.322 0-0.583 0.261-0.583 0.583 0 0.006 0 0.012 0 0.017v2.366zM81.179 0.161c4.786 0 7.375 4.11 7.375 9.336 0 5.049-2.858 9.057-7.375 9.057-4.696 0-7.257-4.111-7.257-9.232 0-5.156 2.589-9.161 7.257-9.161zM81.208 3.54c-2.379 0-2.529 3.239-2.529 5.26s-0.029 6.339 2.5 6.339c2.499 0 2.618-3.483 2.618-5.608 0-1.393-0.059-3.065-0.482-4.39-0.361-1.148-1.083-1.601-2.107-1.601zM51.788 10.299v-0.698c-2.332 0-4.797 0.5-4.797 3.248 0 1.396 0.723 2.339 1.962 2.339 0.904 0 1.719-0.559 2.232-1.466 0.633-1.117 0.603-2.165 0.603-3.422zM55.040 18.163c-0.213 0.192-0.603 0.198-0.762 0.075-1.102-0.852-1.849-2.149-1.849-2.149-1.771 1.804-3.025 2.347-5.317 2.347-2.716 0-4.829-1.679-4.829-5.029 0-2.618 1.419-4.399 3.441-5.271 1.749-0.77 4.194-0.909 6.065-1.118 0 0 0.155-2.021-0.392-2.758-0.426-0.571-1.146-0.838-1.81-0.838-1.196-0.006-2.352 0.646-2.582 1.898-0.065 0.357-0.33 0.659-0.608 0.628l-3.089-0.337c-0.28-0.039-0.493-0.276-0.493-0.563 0-0.039 0.004-0.077 0.012-0.114l-0.001 0.004c0.719-3.792 4.143-4.938 7.214-4.938 1.568 0 3.62 0.419 4.858 1.607 1.568 1.466 1.418 3.42 1.418 5.551v5.025c0 1.513 0.627 2.175 1.217 2.989 0.206 0.296 0.252 0.643-0.010 0.857-0.659 0.553-2.482 2.136-2.482 2.136zM9.504 10.299v-0.698c-2.331 0-4.796 0.5-4.796 3.248 0 1.396 0.723 2.339 1.962 2.339 0.904 0 1.719-0.559 2.232-1.466 0.633-1.117 0.602-2.165 0.602-3.422zM12.756 18.163c-0.213 0.192-0.602 0.198-0.761 0.075-1.103-0.852-1.849-2.149-1.849-2.149-1.771 1.804-3.025 2.347-5.318 2.347-2.714-0.001-4.828-1.68-4.828-5.030 0-2.618 1.419-4.399 3.439-5.271 1.75-0.77 4.195-0.909 6.065-1.118 0 0 0.157-2.021-0.392-2.758-0.425-0.571-1.146-0.838-1.809-0.838-1.198-0.006-2.353 0.646-2.582 1.898-0.066 0.357-0.33 0.659-0.608 0.628l-3.088-0.337c-0.28-0.037-0.493-0.275-0.493-0.562 0-0.040 0.004-0.079 0.012-0.116l-0.001 0.004c0.718-3.791 4.142-4.937 7.214-4.937 1.568 0 3.62 0.419 4.858 1.607 1.568 1.466 1.418 3.42 1.418 5.551v5.025c0 1.513 0.627 2.175 1.216 2.989 0.207 0.296 0.253 0.643-0.010 0.857-0.659 0.553-2.481 2.136-2.481 2.136zM22.189 8.835c0-1.917-0.090-4.564 2.227-4.564 2.288 0 1.988 2.717 1.988 4.564l0.003 8.776c0 0.316 0.256 0.575 0.579 0.593h3.222c0.004 0 0.009 0 0.014 0 0.331 0 0.6-0.265 0.608-0.594v-8.776c0-0.941-0.029-2.334 0.302-3.17s1.144-1.359 1.927-1.359c0.933 0 1.656 0.314 1.897 1.428 0.15 0.662 0.090 2.405 0.090 3.101l0.002 8.776c0 0.316 0.254 0.575 0.578 0.593h3.221c0.004 0 0.010 0 0.015 0 0.331 0 0.6-0.265 0.607-0.594v-0.001l0.004-10.447c0-1.777 0.21-3.797-0.815-5.191-0.902-1.254-2.377-1.811-3.733-1.811-1.896 0-3.671 0.976-4.455 3.066-0.904-2.091-2.168-3.066-4.185-3.066-1.987 0-3.462 0.976-4.244 3.066h-0.061v-2.114c0-0 0-0.001 0-0.001 0-0.333-0.27-0.602-0.602-0.602-0 0-0.001 0-0.001 0h-3.010c0 0 0 0 0 0-0.332 0-0.601 0.269-0.601 0.601 0 0 0 0.001 0 0.001v-0 16.491c0 0.332 0.269 0.601 0.601 0.601h3.221c0 0 0 0 0 0 0.332 0 0.602-0.269 0.602-0.601v-8.768zM95.392 17.602c0 0 0 0.001 0 0.001 0 0.333-0.27 0.602-0.602 0.602h-3.221c-0.332-0.001-0.601-0.27-0.601-0.602 0-0 0-0.001 0-0.001v0-16.49c0-0.333 0.27-0.603 0.601-0.603h2.978c0.349 0 0.603 0.281 0.603 0.472v2.523h0.062c0.903-2.264 2.167-3.344 4.395-3.344 1.447 0 2.861 0.523 3.764 1.951 0.845 1.323 0.845 3.552 0.845 5.155v10.417c-0.046 0.297-0.3 0.522-0.607 0.522-0.004 0-0.009-0-0.013-0h-3.233c-0.294-0.014-0.532-0.234-0.573-0.518l-0-0.003 0.005-10.002c0-3.347-1.282-3.445-2.021-3.445-0.861 0-1.554 0.673-1.858 1.3-0.45 1.011-0.523 2.044-0.523 3.159v8.907z"></path>
</symbol>
<symbol id="icon-frame-1" viewBox="0 0 373 32">
<path fill="#fff" style="fill: var(--color3, #fff)" d="M371.334 27.36c-1.009 0-2.018 1.008-2.018 2.016 0 1.26 1.009 2.016 2.018 2.016s2.018-1.008 2.018-2.016c0-1.259-0.756-2.016-2.018-2.016zM299.442 31.392h9.082v-0.756l-1.009-0.252c-1.009-0.252-1.261-0.755-1.261-2.016v-12.093h2.017c1.262 0 2.018 0.252 2.018 3.024l0.253 5.795c0.252 5.039 1.765 6.55 4.288 6.55s3.279-1.763 3.279-4.283v-1.008h-1.009v0.755c0 1.764-0.252 2.772-0.756 2.772s-0.505-0.505-0.756-2.521l-0.253-4.031c-0.252-5.291-1.009-7.055-5.045-7.811 3.785-1.008 6.054-3.779 6.054-7.558 0-5.040-4.036-7.559-7.82-7.559h-15.388v0.756l0.757 0.252c1.514 0.252 1.765 1.26 1.765 4.787v18.142c0 4.032-1.009 6.048-3.783 6.048-2.271 0-3.532-1.009-3.532-5.545v-21.418c0-1.261 0.505-1.513 1.514-1.764l1.261-0.252v-0.757h-9.333v0.756l1.009 0.252c1.009 0.252 1.262 0.503 1.262 1.764v21.165c0 4.787 2.774 7.307 6.811 7.307 4.288 0 6.306-2.519 6.306-7.558v-19.653c0-2.521 0.505-3.276 2.523-3.276 1.514 0 2.27 0.503 2.27 2.016v25.197c0 1.259-0.505 1.763-1.261 2.016l-1.009 0.252v0.755h-0.253v-0.252zM360.236 3.424c0-1.261 0.505-1.764 1.261-1.764l1.261-0.252v-0.757h-9.332v0.756l1.008 0.252c1.009 0.252 1.262 0.503 1.262 1.764v25.449c0 1.26-0.505 1.763-1.766 1.763-1.513 0-1.765-0.503-2.522-3.275l-5.803-27.212h-1.765l-5.55 26.205c-0.505 3.023-1.009 3.527-2.27 4.032l-0.757 0.251v0.757h6.307v-0.757l-1.009-0.252c-1.262-0.252-1.766-1.008-1.009-4.284l3.279-16.629 3.532 17.89c0.505 2.519 0.505 3.023-1.514 3.527l-1.009 0.252v0.756h23.964v-10.331h-0.756c-0.505 4.787-1.514 9.070-5.297 9.070h-1.766l0.253-27.212zM345.857 23.077v-1.26h-6.054l-0.252 1.259h6.306zM320.631 3.927v21.669c0 3.275 0 4.787-1.514 5.039l-0.756 0.253v0.755h6.559v-0.755c-2.775-0.505-2.775-1.513-2.775-4.788v-20.66l-1.009-1.007 11.1 27.212h1.765v-25.198c0-3.779 0-4.535 1.765-5.039l0.505-0.252v-0.757h-6.811v0.757l0.757 0.252c2.27 0.503 2.27 1.26 2.27 4.787v15.622l0.505-0.252-8.324-21.419h-6.306v0.757l0.505 0.252c0.505 0.252 1.009 1.008 1.765 2.771zM306.254 1.156h1.765c1.765 0 3.532 1.259 3.532 7.055 0 6.048-1.262 6.55-3.785 6.55h-1.513v-13.605zM275.983 15.518c0 12.85-1.009 14.866-3.532 14.866-2.27 0-3.279-1.763-3.279-14.613 0-12.347 1.009-14.363 3.279-14.363 2.523-0.252 3.532 1.763 3.532 14.11zM281.028 15.77c0-8.566-2.774-15.621-8.324-15.621s-8.324 7.055-8.324 15.622c0 8.565 2.774 15.621 8.324 15.621 5.55 0.252 8.324-6.803 8.324-15.622zM261.604 3.424c0-1.261 0.253-1.764 1.262-1.764l1.009-0.252v-0.757h-9.333v0.756l1.009 0.252c1.009 0.252 1.514 0.503 1.514 1.764v21.92c0 3.024-0.253 5.545-2.523 5.545-1.514 0-2.523-1.008-2.523-2.016 0.252-1.511 2.523-1.26 2.774-3.527 0.253-1.513-1.009-2.268-1.765-2.519-1.514-0.253-3.027 1.007-3.027 3.275 0 3.024 2.018 5.795 5.297 5.795 3.785 0 6.559-2.519 6.559-7.307l-0.253-21.165zM110.506 3.424c0-1.261 0.505-1.764 1.261-1.764l1.262-0.252v-0.757h-9.333v0.756l1.009 0.252c1.009 0.252 1.261 0.503 1.261 1.764v25.449c0 1.26-0.505 1.763-1.765 1.763-1.514 0-1.766-0.503-2.523-3.275l-5.803-27.212h-1.765l-5.549 26.205c-0.505 3.023-1.009 3.527-2.271 4.032l-0.757 0.251v0.757h6.308v-0.757l-1.009-0.252c-1.261-0.252-1.765-1.008-1.009-4.284l3.28-16.629 3.531 17.89c0.505 2.519 0.505 3.023-1.514 3.527l-1.009 0.252v0.756h24.217v-10.331h-0.756c-0.505 4.787-1.514 9.070-5.298 9.070h-1.765v-27.212zM236.38 1.156h1.009c2.774 0 3.783 4.535 4.036 9.071h0.756v-10.331h-16.397v10.331h0.757c0.252-4.788 1.261-9.071 4.036-9.071h1.009v26.96c0 1.26-0.505 1.764-1.262 2.016l-1.261 0.252v0.756h9.585v-0.756l-1.514-0.252c-0.756-0.252-1.261-0.503-1.261-1.763l0.505-27.213zM215.695 15.77h1.514c2.018 0 2.523 0.757 3.027 5.796h0.756v-12.347h-0.756c-0.505 3.779-1.009 5.542-3.027 5.542h-1.514v-13.354h3.027c3.532 0 4.288 4.285 4.793 9.072h0.756v-10.332h-15.387v0.755l1.009 0.253c1.009 0.252 1.261 1.008 1.261 2.016v25.197c0 1.259-0.505 1.763-1.261 2.016l-1.009 0.251v0.757h15.891v-10.332h-0.505c-0.505 4.787-1.009 9.071-5.044 9.071h-3.027l-0.505-14.362zM198.794 15.77h1.514c2.018 0 2.523 0.757 3.027 5.796h0.757v-12.347h-0.757c-0.505 3.779-1.009 5.542-3.027 5.542h-1.514v-13.354h3.027c3.532 0 4.288 4.537 4.793 9.072h0.757v-10.332h-15.892v0.755l1.514 0.253c1.009 0.252 1.262 1.008 1.262 2.016v25.197c0 1.259-0.505 1.763-1.262 2.016l-1.009 0.251v0.757h15.892v-10.332h-0.757c-0.505 4.787-1.009 9.071-5.044 9.071h-3.027v-14.11h-0.253v-0.253zM180.127 1.156h1.262c1.765 0 3.532 1.259 3.532 7.055 0 5.795-1.262 6.55-3.785 6.55h-1.009v-13.605zM173.316 31.392h9.082v-0.756l-1.009-0.252c-1.009-0.252-1.262-0.755-1.262-2.016v-12.093h1.766c1.261 0 2.018 0.503 2.018 3.024l0.252 5.795c0.253 5.039 1.765 6.55 4.288 6.55s3.28-1.763 3.28-4.283v-1.008h-1.009v0.755c0 1.764-0.253 2.772-0.757 2.772s-0.505-0.505-0.756-2.521l-0.253-4.031c-0.252-5.543-1.009-7.055-5.044-7.811 3.783-1.008 6.053-3.779 6.053-7.558 0-5.040-4.036-7.559-7.82-7.559h-8.576v0.756l1.009 0.252c1.009 0.252 1.261 0.503 1.261 1.763v25.198c0 1.259-0.505 1.763-1.261 2.016l-1.009 0.251v1.008h-0.253v-0.252zM166.506 1.156h1.009c2.774 0 3.783 4.535 4.036 9.071h0.756v-10.331h-16.396v10.331h0.756c0.253-4.788 1.261-9.071 4.036-9.071h1.009v26.96c0 1.26-0.505 1.764-1.262 2.016l-1.261 0.252v0.756h9.585v-0.756l-1.261-0.252c-1.261-0.252-1.261-1.26-1.261-2.016v-26.96h0.252zM156.163 23.329c0-9.071-10.090-11.59-10.090-18.645 0-1.513 0.505-3.527 2.774-3.527 3.279 0 4.541 4.283 5.045 9.323h0.756v-10.331h-0.505c-0.252 1.008-0.505 1.511-1.261 1.511-1.009 0-1.514-1.511-4.036-1.511-3.783 0-6.306 3.275-6.306 7.307 0 7.559 10.090 10.835 10.090 18.142 0 3.275-1.514 5.039-3.532 5.039-3.026 0-5.044-3.527-5.549-9.323h-0.757v10.331h0.505c0.505-1.511 1.009-1.511 1.514-1.511 0.757 0 1.766 1.764 4.288 1.764 3.532-0.505 7.063-3.78 7.063-8.567zM126.398 3.424c0-1.261 0.505-1.764 1.261-1.764l1.262-0.252v-0.757h-9.333v0.756l1.008 0.252c1.009 0.252 1.262 0.503 1.262 1.764v25.197c0 1.259-0.505 1.763-1.262 2.016l-1.008 0.252v0.755h14.63v-10.331h-0.757c-0.505 4.787-1.514 9.071-5.297 9.071h-1.765v-26.959zM96.38 23.077v-1.26h-6.054l-0.252 1.259h6.306zM70.144 31.392h2.018l4.288-22.426h-0.503l4.541 22.426h1.515l5.549-26.205c0.505-2.771 1.009-3.779 2.018-4.032l0.757-0.252v-0.754h-6.307v0.755l1.009 0.253c1.261 0.252 1.765 1.007 1.009 4.283l-3.532 17.638h0.505l-3.531-18.645c-0.253-1.764-0.506-3.276 1.008-3.529l1.009-0.252v-0.755h-8.576v0.753l0.503 0.252c1.010 0.253 1.010 0.756 1.515 2.521l1.513 6.803-0.252-4.032-3.027 16.378h0.505l-3.531-18.141c-0.506-1.764-0.506-3.276 1.008-3.529l0.757-0.252v-0.755h-8.829v0.755l0.756 0.252c0.757 0.253 1.262 0.505 1.765 3.024l4.541 27.465zM45.931 15.77h1.513c2.018 0 2.523 0.757 3.027 5.796h0.757v-12.347h-0.757c-0.505 3.779-1.009 5.542-3.027 5.542h-1.513v-13.354h3.026c3.532 0 4.288 4.537 4.794 9.072h0.756v-10.332h-15.389v0.755l1.009 0.253c1.009 0.252 1.262 1.008 1.262 2.016v25.197c0 1.259-0.505 1.763-1.262 2.016l-1.009 0.251v0.757h16.146v-10.332h-0.757c-0.505 4.787-1.009 9.071-5.045 9.071h-3.026v-14.11h-0.505v-0.253zM17.425 31.392h9.081v-0.756l-1.009-0.252c-0.757-0.252-1.261-0.755-1.261-2.016v-12.345h6.811v12.347c0 1.259-0.505 1.763-1.262 2.016l-1.009 0.251v0.757h9.082v-0.757l-1.009-0.252c-1.009-0.252-1.262-0.755-1.262-2.016v-25.197c0-1.259 0.506-1.763 1.262-1.763l1.009-0.252v-0.757h-9.082v0.757l1.262 0.252c0.757 0.252 1.261 0.503 1.261 1.763v11.59h-6.811v-11.591c0-1.259 0.505-1.511 1.262-1.763l1.008-0.252v-0.757h-9.333v0.757l1.010 0.252c1.008 0.252 1.261 0.503 1.261 1.763v25.198c0 1.259-0.505 1.763-1.261 2.016l-1.010 0.251v0.757zM10.613 1.156h1.009c2.775 0 3.785 4.535 4.036 9.071h0.757v-10.331h-16.397v10.331h1.009c0.252-4.788 1.261-9.071 4.036-9.071h1.009v26.96c0 1.26-0.505 1.764-1.262 2.016l-1.261 0.252v0.756h9.585v-0.756l-1.514-0.252c-0.757-0.252-1.261-0.503-1.261-1.763l0.252-27.213z"></path>
</symbol>
<symbol id="icon-Frame-2" viewBox="0 0 32 32">
<path fill="none" stroke="#fefefe" style="stroke: var(--color4, #fefefe)" stroke-linejoin="miter" stroke-linecap="butt" stroke-miterlimit="4" stroke-width="0.6076" d="M10.537 0.39h10.927c5.604 0 10.146 4.543 10.146 10.147v10.927c0 5.603-4.543 10.146-10.147 10.146h-10.926c-5.604 0-10.147-4.544-10.147-10.147v-10.926c0-5.604 4.544-10.147 10.147-10.147z"></path>
<path fill="none" stroke="#fefefe" style="stroke: var(--color4, #fefefe)" stroke-linejoin="miter" stroke-linecap="butt" stroke-miterlimit="4" stroke-width="0.6076" d="M18.721 10.268c-0.782-0.47-1.725-0.749-2.734-0.749-0.003 0-0.005 0-0.008 0h0c-0.994 0-1.926 0.269-2.725 0.738M20.725 8.408c-1.311-0.97-2.959-1.553-4.744-1.553-0.004 0-0.009 0-0.013 0h0.001c-0.004 0-0.008 0-0.013 0-1.768 0-3.402 0.572-4.728 1.541l0.023-0.016"></path>
<path fill="none" stroke="#fefefe" style="stroke: var(--color4, #fefefe)" stroke-linejoin="miter" stroke-linecap="butt" stroke-miterlimit="4" stroke-width="0.6076" d="M18.035 24.755h-4.071c-2.115 0-3.829-1.715-3.829-3.829v-4.071c0-2.114 1.714-3.829 3.829-3.829h4.071c2.115 0 3.829 1.714 3.829 3.829v0 4.071c0 0 0 0 0 0 0 2.115-1.714 3.829-3.829 3.829-0 0-0 0-0 0h0z"></path>
<path fill="none" stroke="#fefefe" style="stroke: var(--color4, #fefefe)" stroke-linejoin="miter" stroke-linecap="butt" stroke-miterlimit="4" stroke-width="0.6076" d="M14.287 18.89c0-0 0-0 0-0 0-0.946 0.767-1.713 1.713-1.713s1.713 0.767 1.713 1.713v0c0 0 0 0 0 0 0 0.946-0.767 1.713-1.713 1.713s-1.713-0.767-1.713-1.713v0z"></path>
</symbol>
<symbol id="icon-Frame-3" viewBox="0 0 32 32">
<path fill="none" stroke="#2468ff" style="stroke: var(--color5, #2468ff)" stroke-linejoin="round" stroke-linecap="round" stroke-miterlimit="4" stroke-width="0.8101" d="M23.668 19.064c0-1.86-1.506-3.369-3.363-3.369h-3.671l-0.509-6.595c-0.051-0.594-0.546-1.057-1.15-1.057-0.635 0-1.149 0.512-1.154 1.146v0l0.010 13.244-2.341-2.050c-0.435-0.383-1.009-0.616-1.637-0.616-0.594 0-1.14 0.209-1.567 0.557l0.005-0.004s4.103 5.015 7.038 6.406"></path>
<path fill="none" stroke="#2468ff" style="stroke: var(--color5, #2468ff)" stroke-linejoin="round" stroke-linecap="round" stroke-miterlimit="4" stroke-width="0.8101" d="M11.106 11.369v-3.597c0-0 0-0.001 0-0.001 0-1.221 0.989-2.21 2.209-2.211h3.314c1.22 0.001 2.209 0.99 2.209 2.21 0 0.001 0 0.002 0 0.003v-0 3.597"></path>
<path fill="none" stroke="#2468ff" style="stroke: var(--color5, #2468ff)" stroke-linejoin="miter" stroke-linecap="butt" stroke-miterlimit="4" stroke-width="0.8101" d="M21.463 0.39h-10.927c-5.604 0-10.146 4.543-10.146 10.147v10.927c0 5.604 4.543 10.146 10.147 10.146h10.927c5.604 0 10.146-4.543 10.146-10.147v-10.926c0-5.604-4.543-10.146-10.147-10.146z"></path>
</symbol>
<symbol id="icon-Frame-4" viewBox="0 0 32 32">
<path fill="none" stroke="#2468ff" style="stroke: var(--color5, #2468ff)" stroke-linejoin="round" stroke-linecap="round" stroke-miterlimit="4" stroke-width="0.8101" d="M12.479 15.473l2.328 2.322 4.815-4.803"></path>
<path fill="none" stroke="#2468ff" style="stroke: var(--color5, #2468ff)" stroke-linejoin="round" stroke-linecap="round" stroke-miterlimit="4" stroke-width="0.8101" d="M16.541 26.712c1.902-1.050 8.687-5.634 8.954-17.72 0.009-0.437-0.265-0.844-0.679-0.988-2.573-0.887-5.566-1.399-8.767-1.399h0.003c-3.2 0-6.193 0.513-8.767 1.399-0.415 0.143-0.689 0.55-0.679 0.988 0.267 12.086 7.052 16.67 8.953 17.719 0.142 0.080 0.311 0.128 0.491 0.128s0.35-0.047 0.496-0.13l-0.005 0.003z"></path>
<path fill="none" stroke="#2468ff" style="stroke: var(--color5, #2468ff)" stroke-linejoin="miter" stroke-linecap="butt" stroke-miterlimit="4" stroke-width="0.8101" d="M21.463 0.39h-10.927c-5.604 0-10.146 4.543-10.146 10.147v10.927c0 5.604 4.543 10.146 10.147 10.146h10.927c5.604 0 10.146-4.543 10.146-10.147v-10.926c0-5.604-4.543-10.146-10.147-10.146z"></path>
</symbol>
<symbol id="icon-Frame-5" viewBox="0 0 32 32">
<path fill="none" stroke="#2468ff" style="stroke: var(--color5, #2468ff)" stroke-linejoin="miter" stroke-linecap="butt" stroke-miterlimit="4" stroke-width="0.8101" d="M21.463 0.39h-10.927c-5.604 0-10.146 4.543-10.146 10.147v10.927c0 5.604 4.543 10.146 10.147 10.146h10.927c5.604 0 10.146-4.543 10.146-10.147v-10.926c0-5.604-4.543-10.146-10.147-10.146z"></path>
<path fill="none" stroke="#2468ff" style="stroke: var(--color5, #2468ff)" stroke-linejoin="round" stroke-linecap="round" stroke-miterlimit="4" stroke-width="0.8101" d="M8.973 14.46v-1.932c0-2.177 1.631-3.942 3.643-3.942h6.671c2.012 0 3.642 1.765 3.642 3.943v1.932M8.973 16.138v3.611c0 2.177 1.631 3.942 3.643 3.942h6.671c2.012 0 3.642-1.765 3.642-3.942v-3.611"></path>
<path fill="none" stroke="#2468ff" style="stroke: var(--color5, #2468ff)" stroke-linejoin="round" stroke-linecap="round" stroke-miterlimit="4" stroke-width="0.8101" d="M10.738 12.55l-1.765 1.911-1.765-1.911M21.165 18.048l1.764-1.909 1.765 1.909"></path>
</symbol>
<symbol id="icon-Frame-6" viewBox="0 0 100 32">
<path fill="#00b68c" style="fill: var(--color6, #00b68c)" d="M13.196 12.866h5.938v5.938h-5.938z"></path>
<path fill="#fff" style="fill: var(--color3, #fff)" d="M16.819 17.155h-0.419v-2.781l-0.841 0.309v-0.379l1.195-0.448h0.065v3.299z"></path>
<path fill="#999" style="fill: var(--color7, #999)" d="M21.706 16.051h11.876v0.33h-11.876zM35.959 12.866h5.938v5.938h-5.938z"></path>
<path fill="#fff" style="fill: var(--color3, #fff)" d="M40.033 17.155h-2.152v-0.3l1.136-1.262c0.169-0.191 0.284-0.346 0.347-0.464 0.065-0.12 0.097-0.244 0.097-0.372 0-0.172-0.052-0.312-0.156-0.422s-0.242-0.165-0.415-0.165c-0.208 0-0.369 0.059-0.485 0.178-0.114 0.117-0.172 0.281-0.172 0.492h-0.417c0-0.302 0.097-0.546 0.291-0.733 0.195-0.186 0.456-0.28 0.782-0.28 0.305 0 0.546 0.081 0.724 0.242 0.178 0.159 0.266 0.372 0.266 0.638 0 0.323-0.206 0.708-0.618 1.155l-0.88 0.954h1.648v0.34z"></path>
<path fill="#999" style="fill: var(--color7, #999)" d="M44.201 16.051h11.876v0.33h-11.876zM58.392 12.866h5.938v5.938h-5.938z"></path>
<path fill="#fff" style="fill: var(--color3, #fff)" d="M60.921 15.31h0.313c0.197-0.003 0.352-0.055 0.465-0.155s0.169-0.237 0.169-0.408c0-0.385-0.192-0.577-0.575-0.577-0.18 0-0.325 0.052-0.433 0.156-0.107 0.102-0.16 0.238-0.16 0.408h-0.417c0-0.26 0.095-0.476 0.284-0.647 0.191-0.173 0.433-0.259 0.726-0.259 0.31 0 0.553 0.082 0.728 0.246s0.264 0.392 0.264 0.684c0 0.143-0.047 0.281-0.14 0.415s-0.221 0.237-0.371 0.298l-0.006 0.002c0.18 0.057 0.32 0.152 0.417 0.284 0.099 0.133 0.149 0.294 0.149 0.485 0 0.295-0.096 0.529-0.289 0.702s-0.443 0.259-0.751 0.259c-0.308 0-0.559-0.083-0.753-0.251s-0.289-0.387-0.289-0.66h0.419c0 0.173 0.056 0.311 0.169 0.415s0.264 0.155 0.453 0.155c0.201 0 0.356-0.052 0.462-0.158s0.16-0.256 0.16-0.453c0-0.191-0.059-0.338-0.176-0.44s-0.286-0.155-0.507-0.158h-0.313v-0.34z"></path>
<path fill="#999" style="fill: var(--color7, #999)" d="M66.696 16.051h11.876v0.33h-11.876zM80.825 12.866h5.938v5.938h-5.938z"></path>
<path fill="#fff" style="fill: var(--color3, #fff)" d="M84.178 16.052h0.456v0.341h-0.456v0.762h-0.419v-0.762h-1.495v-0.246l1.47-2.275h0.444v2.181zM82.737 16.052h1.022v-1.61l-0.050 0.090-0.972 1.52z"></path>
</symbol>
<symbol id="icon-Frame-7" viewBox="0 0 32 32">
<path fill="#fff" style="fill: var(--color1, #fff)" d="M0 0h32v32h-32v-32z"></path>
<path fill="none" stroke="#231F20" style="stroke: var(--color2, #231F20)" stroke-linejoin="round" stroke-linecap="round" stroke-miterlimit="4" stroke-width="1.1111" d="M28.805 11.703c0 6.173-5.941 11.177-13.273 11.177-7.329 0-13.271-5.004-13.271-11.177s5.942-11.177 13.271-11.177c7.331 0 13.273 5.004 13.273 11.177z"></path>
<path fill="none" stroke="#231F20" style="stroke: var(--color2, #231F20)" stroke-linejoin="round" stroke-linecap="round" stroke-miterlimit="4" stroke-width="1.1111" d="M12.199 25.807l-3.382 5.597-2.026-5.157-6.166 1.694 3.381-5.595"></path>
<path fill="none" stroke="#231F20" style="stroke: var(--color2, #231F20)" stroke-linejoin="round" stroke-linecap="round" stroke-miterlimit="4" stroke-width="1.1111" d="M18.866 25.807l3.383 5.597 2.026-5.157 6.166 1.694-3.381-5.595"></path>
</symbol>
<symbol id="icon-Frame-8" viewBox="0 0 32 32">
<path fill="#fff" style="fill: var(--color1, #fff)" d="M0 0h32v32h-32v-32z"></path>
<path fill="none" stroke="#231F20" style="stroke: var(--color2, #231F20)" stroke-linejoin="round" stroke-linecap="round" stroke-miterlimit="4" stroke-width="1.1111" d="M20.6 5.162c0 2.56-2.075 4.635-4.635 4.635s-4.636-2.075-4.636-4.635c0-2.56 2.076-4.635 4.636-4.635s4.635 2.075 4.635 4.635z"></path>
<path fill="none" stroke="#231F20" style="stroke: var(--color2, #231F20)" stroke-linejoin="round" stroke-linecap="round" stroke-miterlimit="4" stroke-width="1.1111" d="M0.527 31.177h30.877"></path>
<path fill="none" stroke="#231F20" style="stroke: var(--color2, #231F20)" stroke-linejoin="round" stroke-linecap="round" stroke-miterlimit="4" stroke-width="1.1111" d="M23.436 28.37v-5.836c0-0.853-0.692-1.544-1.544-1.544h-11.854c-0.853 0-1.543 0.691-1.543 1.544v5.836"></path>
<path fill="none" stroke="#231F20" style="stroke: var(--color2, #231F20)" stroke-linejoin="round" stroke-linecap="round" stroke-miterlimit="4" stroke-width="1.1111" d="M27.664 28.338c0.851-0.983 1.085-2.357 0.607-3.566l-2.707-6.849c-0.932-2.356-3.208-3.904-5.743-3.904h-7.712c-2.535 0-4.812 1.548-5.743 3.904l-2.708 6.849c-0.478 1.209-0.243 2.583 0.608 3.566"></path>
</symbol>
<symbol id="icon-Frame-9" viewBox="0 0 32 32">
<path fill="none" stroke="#231f20" style="stroke: var(--color8, #231f20)" stroke-linejoin="round" stroke-linecap="round" stroke-miterlimit="4" stroke-width="1.1111" d="M1.228 22.308v-21.538h22.274c0.625 0 1.175 0.588 1.351 1.445l1.796 10.794 3.327 1.733c0.447 0.355 0.725 1.028 0.725 1.76v5.805M15.964 22.308v-17.436M27.595 26.409h3.809M11.352 26.409h9.227M0.526 26.409h3.808"></path>
<path fill="none" stroke="#231f20" style="stroke: var(--color8, #231f20)" stroke-linejoin="round" stroke-linecap="round" stroke-miterlimit="4" stroke-width="1.1111" d="M11.353 26.41c0 2.832-1.571 5.128-3.508 5.128s-3.509-2.296-3.509-5.128 1.572-5.128 3.509-5.128c1.938 0 3.508 2.296 3.508 5.128z"></path>
<path d="M9.16 26.41c0 1.062-0.589 1.924-1.316 1.924s-1.316-0.862-1.316-1.924c0-1.061 0.589-1.923 1.316-1.923s1.316 0.862 1.316 1.923z"></path>
<path fill="none" stroke="#231f20" style="stroke: var(--color8, #231f20)" stroke-linejoin="round" stroke-linecap="round" stroke-miterlimit="4" stroke-width="1.1111" d="M27.595 26.41c0 2.832-1.572 5.128-3.508 5.128s-3.509-2.296-3.509-5.128 1.572-5.128 3.509-5.128c1.938 0 3.508 2.296 3.508 5.128z"></path>
<path d="M25.402 26.41c0 1.062-0.589 1.924-1.316 1.924s-1.316-0.862-1.316-1.924c0-1.061 0.589-1.923 1.316-1.923s1.316 0.862 1.316 1.923z"></path>
<path fill="none" stroke="#231f20" style="stroke: var(--color8, #231f20)" stroke-linejoin="round" stroke-linecap="round" stroke-miterlimit="4" stroke-width="1.1111" d="M26.651 13.008h-6.812v-8.137h5.457"></path>
</symbol>
<symbol id="icon-Frame-10" viewBox="0 0 32 32">
<path fill="#fff" style="fill: var(--color1, #fff)" d="M0 0h32v32h-32v-32z"></path>
<path fill="none" stroke="#231F20" style="stroke: var(--color2, #231F20)" stroke-linejoin="round" stroke-linecap="round" stroke-miterlimit="4" stroke-width="1.1111" d="M4.035 3.68h-1.78c-0.955 0-1.728 0.887-1.728 1.981v0.003c0 3.949 1.687 7.591 4.309 9.968"></path>
<path fill="none" stroke="#231F20" style="stroke: var(--color2, #231F20)" stroke-linejoin="round" stroke-linecap="round" stroke-miterlimit="4" stroke-width="1.1111" d="M27.895 3.68h1.781c0.954 0 1.727 0.887 1.727 1.981v0.003c0 3.949-1.687 7.591-4.309 9.968"></path>
<path fill="none" stroke="#231F20" style="stroke: var(--color2, #231F20)" stroke-linejoin="round" stroke-linecap="round" stroke-miterlimit="4" stroke-width="1.1111" d="M8.26 30.185h15.411"></path>
<path fill="none" stroke="#231F20" style="stroke: var(--color2, #231F20)" stroke-linejoin="round" stroke-linecap="round" stroke-miterlimit="4" stroke-width="1.1111" d="M15.965 21.297v8.889"></path>
</symbol>
<symbol id="icon-Group" viewBox="0 0 32 32">
<path stroke-linejoin="miter" stroke-linecap="butt" stroke-miterlimit="4" stroke-width="0.4103" d="M21.739 0.24h-11.067c-5.676 0-10.277 4.546-10.277 10.153v10.934c0 5.607 4.601 10.153 10.277 10.153h11.067c5.675 0 10.276-4.546 10.276-10.153v-10.933c0-5.607-4.601-10.153-10.277-10.153z"></path>
<path fill="none" stroke="#fff" style="stroke: var(--color3, #fff)" stroke-linejoin="round" stroke-linecap="round" stroke-miterlimit="4" stroke-width="0.6462" d="M12.756 21.119h6.576M13.695 22.759h4.697M17.452 24.399h-2.818M19.304 19.479c0-0.882 0.221-1.751 0.644-2.53l1.39-2.569c0.008-0.015 0.017-0.029 0.025-0.044l0.008-0.017h-0.003c0.279-0.572 0.442-1.244 0.443-1.954v-0c0-2.814-2.582-5.095-5.767-5.095s-5.767 2.281-5.767 5.095c0 0.693 0.159 1.352 0.443 1.954h-0.002l0.009 0.016c0.007 0.016 0.016 0.030 0.025 0.046l1.39 2.568c0.404 0.731 0.643 1.603 0.643 2.531v0"></path>
</symbol>
<symbol id="icon-Group-1" viewBox="0 0 32 32">
<path fill="none" stroke="#fff" style="stroke: var(--color3, #fff)" stroke-linejoin="miter" stroke-linecap="butt" stroke-miterlimit="4" stroke-width="0.4103" d="M21.739 0.24h-11.067c-5.676 0-10.277 4.546-10.277 10.153v10.934c0 5.607 4.601 10.153 10.277 10.153h11.067c5.675 0 10.276-4.546 10.276-10.153v-10.933c0-5.607-4.601-10.153-10.277-10.153z"></path>
<path fill="none" stroke="#fff" style="stroke: var(--color3, #fff)" stroke-linejoin="round" stroke-linecap="round" stroke-miterlimit="4" stroke-width="0.6462" d="M22.388 21.968c-3.403 3.362-8.921 3.362-12.325 0-1.576-1.55-2.553-3.705-2.553-6.088s0.977-4.538 2.552-6.087l0.001-0.001c3.403-3.363 8.922-3.363 12.325 0 1.576 1.55 2.553 3.705 2.553 6.088s-0.977 4.538-2.551 6.087l-0.001 0.001z"></path>
<path fill="none" stroke="#fff" style="stroke: var(--color3, #fff)" stroke-linejoin="round" stroke-linecap="round" stroke-miterlimit="4" stroke-width="0.6462" d="M18.866 20.054c-0.338 0.338-0.741 0.612-1.188 0.801l-0.024 0.009c-0.428 0.182-0.925 0.288-1.447 0.288-0.513 0-1.002-0.102-1.448-0.288l0.025 0.009c-0.473-0.196-0.878-0.467-1.218-0.803l0 0c-0.339-0.335-0.614-0.734-0.803-1.179l-0.009-0.024c-0.178-0.415-0.282-0.898-0.282-1.406 0-0.517 0.107-1.008 0.301-1.454l-0.009 0.024c0.202-0.467 0.479-0.864 0.82-1.197l0.001-0.001c0.676-0.657 1.6-1.063 2.619-1.063 0.006 0 0.012 0 0.017 0h-0.001c1.025 0.002 1.953 0.415 2.629 1.081l-0-0c0.672 0.662 1.089 1.58 1.094 2.596v0.001c0 0.003 0 0.006 0 0.009 0 1.013-0.411 1.931-1.076 2.595l-0 0z"></path>
<path fill="none" stroke="#fff" style="stroke: var(--color3, #fff)" stroke-linejoin="round" stroke-linecap="round" stroke-miterlimit="4" stroke-width="0.6462" d="M16.225 16.215v2.46"></path>
<path fill="none" stroke="#fff" style="stroke: var(--color3, #fff)" stroke-linejoin="round" stroke-linecap="round" stroke-miterlimit="4" stroke-width="0.6462" d="M17.106 11.36c-0.225 0.218-0.533 0.353-0.872 0.353-0.002 0-0.005 0-0.007-0h0c-0.341-0.001-0.65-0.139-0.875-0.361l0 0c-0.224-0.22-0.363-0.526-0.365-0.864v-0c0-0.001 0-0.003 0-0.004 0-0.337 0.136-0.642 0.357-0.863l-0 0c0.225-0.218 0.533-0.353 0.872-0.353 0.002 0 0.004 0 0.006 0h-0c0.328 0.002 0.643 0.131 0.875 0.361 0.224 0.22 0.363 0.526 0.365 0.864v0c0 0.001 0 0.003 0 0.004 0 0.337-0.136 0.642-0.357 0.863l0-0z"></path>
</symbol>
</defs>
</svg>
