<svg aria-hidden="true" style="position:absolute;width:0;height:0;overflow:hidden" xmlns="http://www.w3.org/2000/svg"><defs>

<symbol id="icon-facebook" viewBox="0 0 32 32">
<path fill="#fff" style="fill: var(--color1, #fff)" d="M17.092 32h-15.326c-0.976 0-1.766-0.791-1.766-1.766v-28.468c0-0.976 0.791-1.766 1.766-1.766h28.468c0.975 0 1.766 0.791 1.766 1.766v28.468c0 0.975-0.791 1.766-1.766 1.766h-8.154v-12.392h4.159l0.623-4.829h-4.782v-3.083c0-1.398 0.388-2.351 2.393-2.351l2.557-0.001v-4.319c-0.442-0.059-1.96-0.19-3.727-0.19-3.687 0-6.211 2.251-6.211 6.384v3.562h-4.17v4.829h4.17v12.392z"></path>
</symbol>

<symbol id="icon-linkedin" viewBox="0 0 32 32"><path fill="#fff" style="fill:var(--color1, #fff)" d="M3.766 8.311h-.044C1.463 8.311-.001 6.8-.001 4.885c0-1.952 1.507-3.431 3.81-3.431 2.301 0 3.716 1.475 3.761 3.426 0 1.915-1.46 3.431-3.805 3.431zM32 30.545h-7.072V20.319c0-2.677-1.107-4.505-3.539-4.505-1.861 0-2.896 1.233-3.377 2.421-.16.375-.157.881-.154 1.403v10.907h-7.006s.091-18.115 0-19.762h7.007v3.102c.414-1.357 2.653-3.292 6.225-3.292 4.433 0 7.916 2.843 7.916 8.963v10.989zM7.044 10.783H.807v19.762h6.237V10.783z"/></symbol>

<symbol id="icon-pinterest" viewBox="0 0 32 32"><path fill="#fff" style="fill:var(--color1, #fff)" d="M16 0C7.166 0 0 7.163 0 16c0 6.55 3.94 12.181 9.579 14.655-.045-1.116-.007-2.46.277-3.675.308-1.298 2.059-8.718 2.059-8.718s-.511-1.022-.511-2.532c0-2.371 1.376-4.142 3.086-4.142 1.455 0 2.159 1.093 2.159 2.403 0 1.461-.933 3.65-1.413 5.677-.401 1.699.85 3.083 2.525 3.083 3.031 0 5.073-3.893 5.073-8.508 0-3.505-2.362-6.13-6.657-6.13-4.853 0-7.876 3.618-7.876 7.66 0 1.397.41 2.379 1.054 3.139.297.352.337.491.229.894-.075.291-.252 1.003-.325 1.283-.107.404-.435.551-.8.4-2.237-.912-3.278-3.36-3.278-6.112 0-4.544 3.834-9.998 11.435-9.998 6.11 0 10.13 4.423 10.13 9.167 0 6.277-3.488 10.965-8.635 10.965-1.725 0-3.35-.932-3.908-1.991 0 0-.928 3.685-1.124 4.397-.339 1.233-1.003 2.467-1.611 3.426 1.44.426 2.959.657 4.533.657 8.837 0 16-7.163 16-16s-7.163-16-16-16z"/></symbol>

<symbol id="icon-instagram" viewBox="0 0 32 32"><path fill="#fff" style="fill:var(--color1, #fff)" d="M16 0c-4.346 0-4.891.018-6.596.096-1.703.078-2.866.349-3.885.745a7.874 7.874 0 0 0-2.832 1.844l-.001.001A7.851 7.851 0 0 0 .859 5.465l-.018.054C.445 6.539.174 7.701.096 9.403.018 11.11 0 11.656 0 16s.018 4.891.096 6.596c.078 1.703.349 2.867.745 3.885a7.874 7.874 0 0 0 1.844 2.832l.001.001a7.851 7.851 0 0 0 2.779 1.827l.054.018c1.019.396 2.181.667 3.884.745C11.11 31.982 11.655 32 16 32s4.891-.018 6.596-.096c1.703-.078 2.867-.349 3.885-.743a7.874 7.874 0 0 0 2.832-1.844l.001-.001a7.864 7.864 0 0 0 1.827-2.78l.018-.054c.396-1.018.667-2.181.745-3.885.078-1.707.096-2.251.096-6.596s-.018-4.891-.096-6.596c-.078-1.703-.349-2.866-.743-3.885a7.874 7.874 0 0 0-1.844-2.832l-.001-.001A7.864 7.864 0 0 0 26.536.86l-.054-.018C25.464.446 24.3.175 22.597.097 20.89.019 20.347.001 16.001.001zm0 2.883c4.272 0 4.779.016 6.465.093 1.561.071 2.407.332 2.972.551.747.29 1.28.637 1.839 1.197a4.95 4.95 0 0 1 1.197 1.839c.22.564.48 1.411.551 2.972.077 1.686.093 2.193.093 6.465s-.016 4.779-.093 6.465c-.071 1.561-.332 2.407-.551 2.972a4.942 4.942 0 0 1-1.197 1.839 4.97 4.97 0 0 1-1.805 1.186l-.034.011c-.564.22-1.411.48-2.972.551-1.686.077-2.192.093-6.465.093-4.272 0-4.779-.016-6.465-.093-1.561-.071-2.407-.332-2.972-.551a4.942 4.942 0 0 1-1.839-1.197 4.978 4.978 0 0 1-1.186-1.805l-.011-.034c-.22-.564-.48-1.411-.551-2.972-.077-1.686-.093-2.193-.093-6.465s.016-4.779.093-6.465c.071-1.561.332-2.407.551-2.972.29-.747.637-1.28 1.197-1.839a4.978 4.978 0 0 1 1.805-1.186l.034-.011c.564-.22 1.411-.48 2.972-.551 1.686-.077 2.193-.093 6.465-.093zM7.783 16a8.217 8.217 0 0 1 16.434 0 8.217 8.217 0 0 1-16.434 0zM16 21.333a5.333 5.333 0 1 1 0-10.666 5.333 5.333 0 1 1 0 10.666zm8.541-11.954a1.92 1.92 0 0 0 0-3.84 1.92 1.92 0 0 0 0 3.84z"/></symbol>

<symbol id="icon-twitter" viewBox="0 0 32 32"><path fill="#fff" style="fill:var(--color1, #fff)" d="M32 5.824a12.846 12.846 0 0 1-3.77 1.059 6.751 6.751 0 0 0 2.873-3.675l.013-.048a12.692 12.692 0 0 1-4.087 1.616l-.084.014a6.465 6.465 0 0 0-4.791-2.125c-3.623 0-6.563 3.014-6.563 6.731 0 .529.057 1.041.169 1.534-5.456-.281-10.293-2.958-13.533-7.036a6.774 6.774 0 0 0-.889 3.375v.013-.001.03a6.77 6.77 0 0 0 2.9 5.559l.022.015a6.42 6.42 0 0 1-3.007-.856l.031.017v.082c0 3.264 2.263 5.984 5.269 6.602a6.131 6.131 0 0 1-1.706.237h-.026.001a6.46 6.46 0 0 1-1.236-.119c.836 2.673 3.259 4.621 6.133 4.672a12.885 12.885 0 0 1-8.151 2.883h-.003c-.53 0-1.054-.03-1.567-.092 2.833 1.893 6.317 3.021 10.064 3.022 12.077 0 18.679-10.256 18.679-19.153 0-.292-.006-.586-.017-.873a13.447 13.447 0 0 0 3.274-3.484z"/></symbol>

<symbol id="icon-logo" viewBox="0 0 70 32"><path d="M25.848 30.316a9.58 9.58 0 0 1-5.457 1.689h-.031.002-.049a9.845 9.845 0 0 1-6.657-2.58l.008.007c-.142-.128 0-.298.148-.202a13.105 13.105 0 0 0 6.651 1.79c1.867 0 3.643-.386 5.254-1.083l-.086.033c.255-.107.461.165.218.346z"/><path d="M26.467 29.607c-.191-.246-1.255-.118-1.737-.059-.142 0-.163-.106-.037-.202.852-.597 2.245-.427 2.404-.224s-.042 1.599-.836 2.276c-.122.101-.239.048-.186-.085.18-.453.577-1.46.392-1.705zm-1.7-4.498v-.592c0-.079.064-.144.144-.144h2.594c.06 0 .112.038.133.091v.001c.006.016.01.034.01.053v.506c0 .085-.069.192-.196.368l-1.345 1.935a2.822 2.822 0 0 1 1.498.327l-.015-.007c.08.045.134.127.138.223v.624c0 .085-.095.186-.191.133-.398-.211-.87-.335-1.372-.335s-.974.124-1.388.343l.016-.008c-.09.048-.186-.048-.186-.133v-.576l-.001-.045c0-.131.036-.253.099-.357l-.002.003 1.567-2.265h-1.361a.143.143 0 0 1-.131-.087v-.001a.138.138 0 0 1-.011-.055v-.001zm5.137.027c-.582 0-.619.8-.619 1.295s0 1.561.614 1.561.641-.858.641-1.379a3.688 3.688 0 0 0-.121-1.066.49.49 0 0 0-.531-.394h.002l.015-.016zm0-.837c1.17 0 1.806 1.018 1.806 2.302s-.699 2.233-1.806 2.233c-1.106 0-1.779-1.012-1.779-2.276s.636-2.26 1.779-2.26zm-6.413 4.439a.172.172 0 0 1-.186 0h.001a2.142 2.142 0 0 1-.45-.524l-.005-.009a1.553 1.553 0 0 1-1.307.581h.004a1.115 1.115 0 0 1-.875-.347 1.128 1.128 0 0 1-.306-.9v.005l-.001-.041c0-.276.082-.532.222-.746l-.003.005c.151-.23.363-.409.615-.514l.009-.003c.441-.152.949-.25 1.478-.271h.011a1.45 1.45 0 0 0-.098-.693l.003.01a.567.567 0 0 0-.439-.208h-.006a.606.606 0 0 0-.635.465l-.001.004c0 .091-.079.16-.148.155l-.757-.059a.142.142 0 0 1-.116-.112v-.001a.136.136 0 0 1 0-.059v.001c.174-.933 1.016-1.215 1.769-1.215.431-.016.854.124 1.191.394.381.363.344.848.344 1.37v1.242c.003.275.111.539.302.735a.15.15 0 0 1 0 .208l-.609.533-.005-.005zm-.794-1.94a1.6 1.6 0 0 1-.153.857l.004-.01a.65.65 0 0 1-.527.362h-.002c-.307 0-.482-.234-.482-.581 0-.676.604-.799 1.176-.799v.17h-.016zm-9.564 1.941a.172.172 0 0 1-.186 0h.001a2.168 2.168 0 0 1-.451-.524l-.005-.009a1.587 1.587 0 0 1-1.306.581h.004l-.046.001a1.127 1.127 0 0 1-1.118-1.226v.004l-.001-.045c0-.275.081-.53.221-.744l-.003.005a1.34 1.34 0 0 1 .624-.516c.441-.152.949-.25 1.478-.272h.011a1.408 1.408 0 0 0-.104-.691l.003.009a.53.53 0 0 0-.421-.208h-.019.001a.602.602 0 0 0-.635.465l-.001.004c0 .09-.08.159-.148.154l-.758-.08a.143.143 0 0 1-.116-.112v-.001a.136.136 0 0 1 0-.059v.001c.175-.933 1.017-1.215 1.769-1.215l.069-.001c.425 0 .815.149 1.121.398l-.003-.003c.387.363.349.848.349 1.37v1.242c-.002.27.094.532.27.735a.144.144 0 0 1 .032.161v-.001a.147.147 0 0 1-.033.048l-.609.533.011-.005zm-.795-1.94a1.61 1.61 0 0 1-.152.857l.004-.01a.655.655 0 0 1-.527.362h-.003c-.302 0-.477-.234-.477-.581 0-.676.604-.799 1.176-.799v.17h-.022zm3.104-.357c0-.474 0-1.123.529-1.123s.482.666.482 1.123v2.164c0 .077.061.14.138.144h.795c.06 0 .111-.035.134-.086v-.001a.149.149 0 0 0 .013-.057v-2.164a2.55 2.55 0 0 1 .078-.801l-.004.018a.534.534 0 0 1 .47-.336h.001a.41.41 0 0 1 .466.35v.002c.018.255.018.511 0 .767v2.163a.15.15 0 0 0 .143.144h.795a.147.147 0 0 0 .134-.086v-.001a.149.149 0 0 0 .013-.057v-2.579a2.142 2.142 0 0 0-.207-1.291l.006.012a1.118 1.118 0 0 0-.895-.448h-.017.001-.032c-.239 0-.46.074-.642.201l.004-.002a1.129 1.129 0 0 0-.425.558 1.071 1.071 0 0 0-.383-.547l-.003-.002a1.046 1.046 0 0 0-.629-.208h-.009a1.055 1.055 0 0 0-1.058.756v-.533a.15.15 0 0 0-.148-.144H14.504a.143.143 0 0 0-.143.143v4.073c0 .06.037.112.089.134h.001c.015.006.033.01.052.01H15.32a.14.14 0 0 0 .132-.092v-.001a.14.14 0 0 0 .009-.051V26.457l-.021-.016zM33.378 28.6v.005c0 .08-.065.144-.144.144h-.793a.148.148 0 0 1-.148-.148v-4.067a.15.15 0 0 1 .148-.144h.74c.068 0 .124.047.139.11v.625c.055-.239.19-.452.383-.603s.431-.229.676-.223l.034-.001c.371 0 .697.192.885.481l.002.004a2.56 2.56 0 0 1 .206 1.279l.001-.01v2.568a.144.144 0 0 1-.143.128h-.769a.141.141 0 0 1-.137-.127v-2.468c0-.826-.318-.847-.498-.847a.527.527 0 0 0-.454.317l-.001.003a1.823 1.823 0 0 0-.127.782v-.005 2.196zm-30.767.138-.063-.416c-.186.163-.4.291-.63.379a1.807 1.807 0 0 1-.682.138h-.001l-.066.002c-.322 0-.616-.124-.835-.328l.001.001a1.119 1.119 0 0 1-.341-.805l.002-.062v.003l-.001-.042c0-.356.16-.675.412-.888l.002-.001a1.67 1.67 0 0 1 1.111-.346h-.004c.358.006.702.056 1.03.145l-.029-.007v-.533a.782.782 0 0 0-.196-.608l.001.001a.97.97 0 0 0-.666-.176h.004a4.316 4.316 0 0 0-1.423.26l.03-.01v-.555c.202-.105.436-.187.683-.232l.015-.002a3.86 3.86 0 0 1 .817-.085h.016-.001c.395-.033.787.078 1.106.314a1.21 1.21 0 0 1 .36.964v-.004 2.893h-.651zm-1.192-.496a1.858 1.858 0 0 0 1.099-.413l-.003.003v-.81a3.32 3.32 0 0 0-.841-.106c-.593 0-.895.234-.895.692l-.001.039c0 .167.065.318.171.431a.65.65 0 0 0 .435.167l.043-.001H1.42zm5.735.496v-2.707a.925.925 0 0 0-.174-.623.66.66 0 0 0-.531-.197h.003a2.17 2.17 0 0 0-1.229.405v3.122h-.789v-4.049h.657l.079.448a2.583 2.583 0 0 1 1.588-.565h.002a1.16 1.16 0 0 1 .88.31l-.001-.001a1.2 1.2 0 0 1 .301.911v-.005 2.974l-.784-.022zm33.484-.155c-.296.151-.646.24-1.016.24h-.045.002a1.853 1.853 0 0 1-1.43-.533c-.315-.433-.504-.976-.504-1.564s.189-1.13.51-1.571l-.005.008a1.879 1.879 0 0 1 1.452-.532h-.006.013c.359 0 .698.082 1.001.229l-.014-.006v.565a2.84 2.84 0 0 0-.874-.165h-.005a1.198 1.198 0 0 0-.958.341 1.593 1.593 0 0 0-.291 1.071v-.006.101c-.031.379.074.758.297 1.066a1.178 1.178 0 0 0 .942.34h-.005c.337-.006.658-.064.959-.167l-.022.007v.575zm2.467.272a1.794 1.794 0 0 1-1.413-.563l-.001-.001c-.321-.436-.514-.984-.514-1.577s.193-1.141.52-1.585l-.005.007c.367-.349.864-.564 1.411-.564s1.045.215 1.412.565l-.001-.001c.321.436.514.984.514 1.577s-.193 1.141-.52 1.585l.005-.007a1.791 1.791 0 0 1-1.413.564h.005zm0-.639c.741 0 1.117-.501 1.117-1.508s-.376-1.497-1.117-1.497c-.742 0-1.117.496-1.117 1.497s.37 1.509 1.117 1.509zm8.023.522v-2.75a.943.943 0 0 0-.15-.59l.002.004a.572.572 0 0 0-.429-.194l-.05.002h.002a2.213 2.213 0 0 0-1.174.362l.008-.005a.828.828 0 0 1 0 .122v3.049h-.784v-2.75l.002-.064a.976.976 0 0 0-.153-.526l.002.004a.57.57 0 0 0-.429-.194l-.05.002h.002a2.128 2.128 0 0 0-1.167.356l.008-.005v3.197h-.784v-4.049h.656l.08.41a2.621 2.621 0 0 1 1.477-.533h.005a.99.99 0 0 1 1.003.543l.003.006a2.624 2.624 0 0 1 1.587-.564h.002a1.09 1.09 0 0 1 .842.309c.204.255.302.58.27.906v2.974l-.784-.022zm1.943 1.642v-5.691h.657l.074.416a1.954 1.954 0 0 1 1.34-.533c.025-.002.054-.002.083-.002.454 0 .86.207 1.127.533l.002.003c.317.444.474.983.445 1.529a2.444 2.444 0 0 1-.476 1.605l.005-.007a1.511 1.511 0 0 1-1.199.592l-.048-.001h.002-.035c-.462 0-.881-.178-1.194-.47l.001.001v2.025h-.784zm1.849-5.169a1.758 1.758 0 0 0-1.063.371l.004-.003v2.222c.301.242.673.376 1.059.383.731 0 1.091-.495 1.091-1.481a1.89 1.89 0 0 0-.269-1.133l.005.008a.932.932 0 0 0-.83-.367h.004zm5.21 3.527-.063-.415c-.186.163-.4.291-.63.379-.203.085-.44.136-.687.138h-.001a1.208 1.208 0 0 1-.901-.326l.001.001a1.133 1.133 0 0 1-.333-.867v.003l-.001-.047c0-.354.158-.67.407-.884l.002-.001a1.678 1.678 0 0 1 1.117-.346h-.004c.358.005.702.056 1.03.145l-.029-.007v-.533a.802.802 0 0 0-.196-.608l.001.001a.97.97 0 0 0-.666-.176h.004a4.32 4.32 0 0 0-1.428.26l.03-.01v-.555a2.44 2.44 0 0 1 .684-.232l.015-.002c.247-.054.53-.085.82-.085h.011-.001a1.652 1.652 0 0 1 1.117.318l-.005-.003a1.205 1.205 0 0 1 .355.964v-.004 2.893h-.646zm-1.191-.496a1.858 1.858 0 0 0 1.099-.413l-.004.003v-.81a3.32 3.32 0 0 0-.841-.106c-.598 0-.895.234-.895.692a.626.626 0 0 0 .164.47.661.661 0 0 0 .477.165zm5.725.496v-2.707a.957.957 0 0 0-.172-.626l.002.003a.66.66 0 0 0-.531-.197h.002a2.162 2.162 0 0 0-1.236.409l.006-.004v3.122h-.784v-4.049h.657l.079.448a2.583 2.583 0 0 1 1.588-.565h.001a1.181 1.181 0 0 1 .885.31l-.001-.001c.211.244.317.562.297.884v2.974h-.794zm5.2-4.049-1.833 4.758c-.097.3-.268.573-.498.788a1.11 1.11 0 0 1-.736.24h-.013c-.216 0-.422-.041-.612-.115l.011.004v-.566a1.794 1.794 0 0 0 .489.055.677.677 0 0 0 .428-.152l-.001.001c.143-.15.247-.333.302-.532l.154-.405-1.621-4.087h.843l1.159 3.315 1.118-3.315h.811v.01zM15.739 8.324H2.283v-.075c.048-.476.158-.944.328-1.391a7.497 7.497 0 0 1 3.182-3.967l.033-.019a6.243 6.243 0 0 1 3.357-.825h-.011a6.693 6.693 0 0 1 2.568.496 6.606 6.606 0 0 1 2.095 1.345l-.003-.002a6.405 6.405 0 0 1 1.375 1.921l.016.039c.334.699.53 1.519.53 2.385v.013-.001l-.016.08zM9.293.001 9.171 0c-1.307 0-2.55.273-3.676.764l.059-.023A9.209 9.209 0 0 0 2.613 2.81l-.004.004A9.363 9.363 0 0 0 .698 5.846l-.022.064a10.693 10.693 0 0 0-.677 3.896V9.8l-.001.14c0 1.383.245 2.708.694 3.935l-.025-.08a9.087 9.087 0 0 0 1.911 3.122l-.005-.005a8.687 8.687 0 0 0 2.919 2.02l.057.021a9.732 9.732 0 0 0 3.732.73l.14-.001h-.007l.121.001c1.612 0 3.143-.343 4.525-.961l-.07.028a8.262 8.262 0 0 0 3.428-2.984l.019-.032-1.668-1.412a6.665 6.665 0 0 1-2.61 2.386l-.038.017a7.793 7.793 0 0 1-3.642.906h-.002a6.852 6.852 0 0 1-3.548-.826 7.29 7.29 0 0 1-2.179-1.962l-.014-.02a7.005 7.005 0 0 1-1.116-2.311l-.012-.05a8.14 8.14 0 0 1-.307-1.985v-.087h15.716V8.733a9.418 9.418 0 0 0-.604-3.262l.021.065a8.572 8.572 0 0 0-1.675-2.822l.007.008A8.367 8.367 0 0 0 13.107.761L13.056.74a8.846 8.846 0 0 0-3.587-.748l-.188.002h.009v.005zm27.209 8.324H23.051V8.25c.048-.476.158-.944.328-1.391A7.54 7.54 0 0 1 24.5 4.757l-.014.019a7.416 7.416 0 0 1 2.085-1.878l.033-.019a6.217 6.217 0 0 1 3.358-.826h-.011a6.677 6.677 0 0 1 2.564.496 6.548 6.548 0 0 1 2.121 1.345l-.003-.003a6.354 6.354 0 0 1 1.324 1.92l.016.04c.348.751.529 1.569.529 2.398v.075zM30.062.001a9.216 9.216 0 0 0-3.744.741 9.163 9.163 0 0 0-2.93 2.064l-.004.004a9.276 9.276 0 0 0-1.911 3.032l-.022.064a10.574 10.574 0 0 0-.684 3.777l.001.124v-.006l-.001.134c0 1.384.243 2.712.689 3.943l-.026-.081a9.199 9.199 0 0 0 1.916 3.123l-.005-.005a8.677 8.677 0 0 0 2.919 2.02l.057.021a9.717 9.717 0 0 0 3.729.73l.144-.001h-.007l.121.001c1.612 0 3.143-.343 4.525-.961l-.07.028a8.239 8.239 0 0 0 3.417-2.984l.019-.032-1.668-1.412a6.614 6.614 0 0 1-2.636 2.386l-.038.017a7.793 7.793 0 0 1-3.642.906h-.002a6.847 6.847 0 0 1-3.548-.826 7.286 7.286 0 0 1-2.178-1.962l-.014-.02a6.922 6.922 0 0 1-1.101-2.312l-.011-.049a8.14 8.14 0 0 1-.307-1.985v-.087h15.738V8.736a9.551 9.551 0 0 0-.583-3.263l.021.066a8.572 8.572 0 0 0-1.675-2.822l.007.008A8.419 8.419 0 0 0 33.903.764l-.051-.022a8.881 8.881 0 0 0-3.595-.748l-.18.002h.009l-.025.005zm29.443 17.633a7.643 7.643 0 0 1-3.113-.619 7.268 7.268 0 0 1-2.377-1.673 7.125 7.125 0 0 1-1.478-2.422l-.016-.05c-.325-.902-.514-1.942-.514-3.027s.188-2.125.533-3.091l-.02.064a7.24 7.24 0 0 1 1.498-2.483l-.004.005a7.298 7.298 0 0 1 2.331-1.65l.046-.018c.92-.391 1.99-.618 3.114-.618s2.194.227 3.167.638l-.054-.02a7.055 7.055 0 0 1 2.369 1.658l.004.004a7.053 7.053 0 0 1 1.489 2.435l.015.049a9.184 9.184 0 0 1 0 6.053 7.2 7.2 0 0 1-1.503 2.477l.004-.004a7.26 7.26 0 0 1-2.331 1.655l-.046.018a7.643 7.643 0 0 1-3.113.619zm0-17.633h-.065c-1.395 0-2.727.272-3.945.766l.07-.025a8.937 8.937 0 0 0-3.097 2.04l-.001.001a9.49 9.49 0 0 0-1.989 3.053l-.023.064a10.368 10.368 0 0 0-.716 3.95v-.007l-.001.108c0 1.384.267 2.706.751 3.917l-.025-.071a9.535 9.535 0 0 0 2.014 3.12l-.002-.002a9.041 9.041 0 0 0 3.027 2.019l.061.022c1.14.462 2.462.73 3.847.73h.103-.005l.109.001c1.376 0 2.689-.268 3.891-.755l-.069.025a9.122 9.122 0 0 0 3.098-2.042 9.183 9.183 0 0 0 2.011-3.054l.022-.062c.459-1.174.726-2.533.726-3.954s-.266-2.78-.751-4.03l.026.076a9.416 9.416 0 0 0-2.034-3.119l.001.001A9.202 9.202 0 0 0 63.498.765l-.062-.022a10.189 10.189 0 0 0-3.823-.731l-.112.001h.006v-.01zM41.518 19.195h2.283V8.985a9.044 9.044 0 0 1 .365-2.616 6.085 6.085 0 0 1 1.141-2.141l-.008.01a5.194 5.194 0 0 1 1.9-1.415l.033-.013a6.741 6.741 0 0 1 2.695-.533V.145c-2.648.054-4.739.874-6.185 2.43-2.377 2.552-2.224 6.262-2.224 6.299v10.321z"/></symbol></defs></svg>