<svg aria-hidden="true" style="position: absolute; width: 0; height: 0; overflow: hidden;" version="1.1" xmlns="http://www.w3.org/2000/svg" xmlns:xlink="http://www.w3.org/1999/xlink">
<defs>
<symbol id="icon-logo" viewBox="0 0 70 32">
<path d="M25.848 30.316c-1.527 1.057-3.418 1.689-5.457 1.689-0.010 0-0.021-0-0.031-0h0.002c-0.015 0-0.032 0-0.049 0-2.565 0-4.901-0.978-6.657-2.58l0.008 0.007c-0.142-0.128 0-0.298 0.148-0.202 1.907 1.125 4.201 1.79 6.651 1.79 1.867 0 3.643-0.386 5.254-1.083l-0.086 0.033c0.255-0.107 0.461 0.165 0.218 0.346z"></path>
<path d="M26.467 29.607c-0.191-0.246-1.255-0.118-1.737-0.059-0.142 0-0.163-0.106-0.037-0.202 0.852-0.597 2.245-0.427 2.404-0.224s-0.042 1.599-0.836 2.276c-0.122 0.101-0.239 0.048-0.186-0.085 0.18-0.453 0.577-1.46 0.392-1.705zM24.767 25.109v-0.587c-0-0.002-0-0.003-0-0.005 0-0.079 0.064-0.144 0.144-0.144 0.002 0 0.003 0 0.005 0h2.584c0.002-0 0.004-0 0.005-0 0.060 0 0.112 0.038 0.133 0.091l0 0.001c0.006 0.016 0.010 0.034 0.010 0.053 0 0.002-0 0.003-0 0.005v-0 0.501c0 0.085-0.069 0.192-0.196 0.368l-1.345 1.935c0.049-0.003 0.107-0.005 0.165-0.005 0.482 0 0.936 0.12 1.333 0.332l-0.015-0.007c0.080 0.045 0.134 0.127 0.138 0.223l0 0v0.624c0 0.085-0.095 0.186-0.191 0.133-0.398-0.211-0.87-0.335-1.372-0.335s-0.974 0.124-1.388 0.343l0.016-0.008c-0.090 0.048-0.186-0.048-0.186-0.133v-0.576c-0.001-0.013-0.001-0.029-0.001-0.045 0-0.131 0.036-0.253 0.099-0.357l-0.002 0.003 1.567-2.265h-1.355c-0.002 0-0.004 0-0.006 0-0.059 0-0.109-0.036-0.131-0.087l-0-0.001c-0.007-0.016-0.011-0.035-0.011-0.055 0-0 0-0.001 0-0.001v0zM29.904 25.136c-0.582 0-0.619 0.8-0.619 1.295s0 1.561 0.614 1.561 0.641-0.858 0.641-1.379c0.012-0.359-0.029-0.718-0.121-1.066-0.045-0.228-0.243-0.397-0.481-0.397-0.017 0-0.034 0.001-0.050 0.003l0.002-0 0.015-0.016zM29.904 24.299c1.17 0 1.806 1.018 1.806 2.302s-0.699 2.233-1.806 2.233c-1.106 0-1.779-1.012-1.779-2.276s0.636-2.26 1.779-2.26zM23.491 28.738c-0.026 0.017-0.058 0.027-0.093 0.027s-0.066-0.010-0.093-0.027l0.001 0c-0.179-0.151-0.33-0.327-0.45-0.524l-0.005-0.009c-0.287 0.357-0.724 0.584-1.213 0.584-0.032 0-0.063-0.001-0.094-0.003l0.004 0c-0.019 0.001-0.041 0.002-0.064 0.002-0.319 0-0.607-0.134-0.811-0.349l-0-0c-0.193-0.203-0.312-0.477-0.312-0.78 0-0.041 0.002-0.080 0.006-0.12l-0 0.005c-0-0.012-0.001-0.027-0.001-0.041 0-0.276 0.082-0.532 0.222-0.746l-0.003 0.005c0.151-0.23 0.363-0.409 0.615-0.514l0.009-0.003c0.441-0.152 0.949-0.25 1.478-0.271l0.011-0c0.005-0.044 0.008-0.096 0.008-0.148 0-0.193-0.038-0.377-0.106-0.545l0.003 0.010c-0.105-0.127-0.262-0.208-0.439-0.208-0.002 0-0.004 0-0.006 0h0c-0.014-0.001-0.029-0.002-0.045-0.002-0.287 0-0.527 0.199-0.59 0.467l-0.001 0.004c0 0.091-0.079 0.16-0.148 0.155l-0.757-0.059c-0.059-0.010-0.105-0.055-0.116-0.112l-0-0.001c-0.002-0.009-0.003-0.019-0.003-0.029s0.001-0.020 0.003-0.030l-0 0.001c0.174-0.933 1.016-1.215 1.769-1.215 0.431-0.016 0.854 0.124 1.191 0.394 0.381 0.363 0.344 0.848 0.344 1.37v1.242c0.003 0.275 0.111 0.539 0.302 0.735 0.026 0.027 0.042 0.064 0.042 0.104s-0.016 0.077-0.042 0.104l0-0-0.609 0.533-0.005-0.005zM22.697 26.798c0.005 0.047 0.008 0.101 0.008 0.156 0 0.251-0.058 0.489-0.161 0.701l0.004-0.010c-0.1 0.202-0.296 0.342-0.527 0.362l-0.002 0c-0.307 0-0.482-0.234-0.482-0.581 0-0.676 0.604-0.799 1.176-0.799v0.17h-0.016zM13.133 28.739c-0.026 0.017-0.058 0.027-0.093 0.027s-0.066-0.010-0.093-0.027l0.001 0c-0.179-0.151-0.33-0.327-0.451-0.524l-0.005-0.009c-0.294 0.357-0.735 0.583-1.23 0.583-0.025 0-0.051-0.001-0.076-0.002l0.004 0c-0.014 0.001-0.030 0.001-0.046 0.001-0.318 0-0.605-0.133-0.809-0.347l-0-0c-0.194-0.203-0.313-0.478-0.313-0.782 0-0.033 0.001-0.065 0.004-0.097l-0 0.004c-0-0.013-0.001-0.029-0.001-0.045 0-0.275 0.081-0.53 0.221-0.744l-0.003 0.005c0.15-0.233 0.369-0.413 0.624-0.516 0.441-0.152 0.949-0.25 1.478-0.272l0.011-0c0.005-0.043 0.007-0.093 0.007-0.143 0-0.194-0.040-0.38-0.111-0.548l0.003 0.009c-0.098-0.127-0.25-0.208-0.421-0.208-0.006 0-0.013 0-0.019 0l0.001-0c-0.015-0.001-0.032-0.002-0.049-0.002-0.286 0-0.525 0.2-0.586 0.467l-0.001 0.004c0 0.090-0.080 0.159-0.148 0.154l-0.758-0.080c-0.059-0.010-0.104-0.055-0.116-0.112l-0-0.001c-0.002-0.009-0.003-0.019-0.003-0.029s0.001-0.020 0.003-0.030l-0 0.001c0.175-0.933 1.017-1.215 1.769-1.215 0.020-0.001 0.044-0.001 0.069-0.001 0.425 0 0.815 0.149 1.121 0.398l-0.003-0.003c0.387 0.363 0.349 0.848 0.349 1.37v1.242c-0.002 0.27 0.094 0.532 0.27 0.735 0.027 0.026 0.044 0.063 0.044 0.104 0 0.020-0.004 0.040-0.012 0.057l0-0.001c-0.008 0.019-0.019 0.034-0.033 0.048l-0 0-0.609 0.533 0.011-0.005zM12.338 26.799c0.005 0.047 0.008 0.102 0.008 0.157 0 0.251-0.058 0.488-0.16 0.7l0.004-0.010c-0.101 0.201-0.296 0.341-0.527 0.362l-0.003 0c-0.302 0-0.477-0.234-0.477-0.581 0-0.676 0.604-0.799 1.176-0.799v0.17h-0.022zM15.442 26.442c0-0.474 0-1.123 0.529-1.123s0.482 0.666 0.482 1.123v2.164c0 0 0 0 0 0 0 0.077 0.061 0.14 0.138 0.144h0.789c0.002 0 0.004 0 0.006 0 0.060 0 0.111-0.035 0.134-0.086l0-0.001c0.008-0.017 0.012-0.036 0.013-0.057v-2.164c-0.003-0.046-0.005-0.1-0.005-0.154 0-0.224 0.029-0.441 0.083-0.647l-0.004 0.018c0.077-0.191 0.257-0.326 0.47-0.336l0.001-0c0.018-0.003 0.038-0.004 0.059-0.004 0.208 0 0.38 0.154 0.407 0.354l0 0.002c0.018 0.255 0.018 0.511 0 0.767v2.163c0.003 0.078 0.065 0.14 0.143 0.144h0.789c0.002 0 0.004 0 0.006 0 0.059 0 0.111-0.035 0.134-0.086l0-0.001c0.008-0.017 0.012-0.036 0.013-0.057v-2.579c0.015-0.097 0.024-0.208 0.024-0.322 0-0.349-0.083-0.678-0.231-0.969l0.006 0.012c-0.206-0.273-0.53-0.448-0.895-0.448-0.006 0-0.011 0-0.017 0h0.001c-0.010-0-0.021-0-0.032-0-0.239 0-0.46 0.074-0.642 0.201l0.004-0.002c-0.197 0.136-0.346 0.331-0.425 0.558-0.069-0.225-0.204-0.413-0.383-0.547l-0.003-0.002c-0.173-0.13-0.392-0.208-0.629-0.208-0.003 0-0.006 0-0.009 0h0c-0.235-0.010-0.466 0.059-0.658 0.196s-0.333 0.334-0.4 0.56v-0.533c-0.004-0.079-0.068-0.143-0.148-0.144h-0.683c-0.002-0-0.003-0-0.005-0-0.079 0-0.143 0.064-0.143 0.143 0 0 0 0.001 0 0.001v-0 4.066c-0 0.002-0 0.004-0 0.006 0 0.060 0.037 0.112 0.089 0.134l0.001 0c0.015 0.006 0.033 0.010 0.052 0.010 0.002 0 0.004-0 0.006-0h0.81c0 0 0.001 0 0.001 0 0.061 0 0.112-0.038 0.132-0.092l0-0.001c0.006-0.015 0.009-0.033 0.009-0.051 0-0.002-0-0.004-0-0.006v0-2.131l-0.021-0.016zM33.378 28.6c0 0.001 0 0.003 0 0.005 0 0.080-0.065 0.144-0.144 0.144-0.001 0-0.003-0-0.004-0h-0.788c-0 0-0 0-0.001 0-0.082 0-0.148-0.066-0.148-0.148 0-0 0-0.001 0-0.001v0-4.066c0.003-0.080 0.068-0.143 0.148-0.144h0.731c0.003-0 0.006-0 0.009-0 0.068 0 0.124 0.047 0.139 0.11l0 0.001v0.624c0.055-0.239 0.19-0.452 0.383-0.603s0.431-0.229 0.676-0.223c0.010-0 0.022-0.001 0.034-0.001 0.371 0 0.697 0.192 0.885 0.481l0.002 0.004c0.137 0.306 0.217 0.664 0.217 1.040 0 0.080-0.004 0.16-0.011 0.239l0.001-0.010v2.568c-0.008 0.072-0.069 0.128-0.143 0.128-0.002 0-0.004-0-0.006-0h-0.763c-0.072-0.002-0.13-0.057-0.137-0.127l-0-0.001v-2.467c0-0.826-0.318-0.847-0.498-0.847-0.205 0.012-0.377 0.139-0.454 0.317l-0.001 0.003c-0.082 0.202-0.13 0.436-0.13 0.681 0 0.034 0.001 0.068 0.003 0.101l-0-0.005v2.196zM2.611 28.738l-0.063-0.416c-0.186 0.163-0.4 0.291-0.63 0.379-0.202 0.085-0.436 0.136-0.682 0.138h-0.001c-0.020 0.001-0.043 0.002-0.066 0.002-0.322 0-0.616-0.124-0.835-0.328l0.001 0.001c-0.21-0.204-0.341-0.489-0.341-0.805 0-0.021 0.001-0.041 0.002-0.062l-0 0.003c-0.001-0.013-0.001-0.027-0.001-0.042 0-0.356 0.16-0.675 0.412-0.888l0.002-0.001c0.28-0.217 0.637-0.348 1.025-0.348 0.029 0 0.058 0.001 0.086 0.002l-0.004-0c0.358 0.006 0.702 0.056 1.030 0.145l-0.029-0.007v-0.533c0.003-0.025 0.005-0.055 0.005-0.084 0-0.201-0.076-0.385-0.201-0.524l0.001 0.001c-0.157-0.113-0.354-0.181-0.566-0.181-0.034 0-0.067 0.002-0.1 0.005l0.004-0c-0.501 0.007-0.979 0.098-1.423 0.26l0.030-0.010v-0.555c0.202-0.105 0.436-0.187 0.683-0.232l0.015-0.002c0.245-0.054 0.527-0.085 0.817-0.085 0.005 0 0.011 0 0.016 0h-0.001c0.395-0.033 0.787 0.078 1.106 0.314 0.224 0.22 0.364 0.526 0.364 0.865 0 0.033-0.001 0.066-0.004 0.099l0-0.004v2.893h-0.651zM1.419 28.242c0.418-0.017 0.798-0.169 1.099-0.413l-0.003 0.003v-0.81c-0.252-0.067-0.542-0.106-0.841-0.106h-0c-0.593 0-0.895 0.234-0.895 0.692-0.001 0.012-0.001 0.025-0.001 0.039 0 0.167 0.065 0.318 0.171 0.431l-0-0c0.115 0.103 0.267 0.167 0.435 0.167 0.015 0 0.029-0 0.043-0.001l-0.002 0h-0.005zM7.154 28.738v-2.707c0.019-0.222-0.043-0.443-0.174-0.623-0.12-0.123-0.288-0.2-0.473-0.2-0.020 0-0.039 0.001-0.058 0.003l0.003-0c-0.442 0.007-0.869 0.148-1.229 0.405v3.122h-0.789v-4.049h0.657l0.079 0.448c0.432-0.346 0.985-0.558 1.588-0.565h0.002c0.026-0.002 0.056-0.003 0.086-0.003 0.307 0 0.586 0.119 0.794 0.313l-0.001-0.001c0.19 0.212 0.306 0.494 0.306 0.803 0 0.036-0.002 0.072-0.005 0.108l0-0.005v2.974l-0.784-0.022zM40.638 28.583c-0.296 0.151-0.646 0.24-1.016 0.24-0.015 0-0.030-0-0.045-0l0.002 0c-0.037 0.003-0.080 0.004-0.123 0.004-0.51 0-0.971-0.205-1.307-0.537l0 0c-0.315-0.433-0.504-0.976-0.504-1.564s0.189-1.13 0.51-1.571l-0.005 0.008c0.339-0.332 0.805-0.537 1.318-0.537 0.045 0 0.090 0.002 0.134 0.005l-0.006-0c0.004-0 0.009-0 0.013-0 0.359 0 0.698 0.082 1.001 0.229l-0.014-0.006v0.565c-0.26-0.095-0.561-0.155-0.874-0.165l-0.005-0c-0.034-0.003-0.074-0.005-0.114-0.005-0.329 0-0.627 0.132-0.844 0.346l0-0c-0.186 0.259-0.297 0.582-0.297 0.93 0 0.048 0.002 0.095 0.006 0.141l-0-0.006v0.101c-0.031 0.379 0.074 0.758 0.297 1.066 0.214 0.213 0.508 0.345 0.834 0.345 0.036 0 0.072-0.002 0.108-0.005l-0.005 0c0.337-0.006 0.658-0.064 0.959-0.167l-0.022 0.007v0.575zM43.105 28.855c-0.031 0.002-0.068 0.003-0.104 0.003-0.516 0-0.981-0.218-1.309-0.566l-0.001-0.001c-0.321-0.436-0.514-0.984-0.514-1.577s0.193-1.141 0.52-1.585l-0.005 0.007c0.367-0.349 0.864-0.564 1.411-0.564s1.045 0.215 1.412 0.565l-0.001-0.001c0.321 0.436 0.514 0.984 0.514 1.577s-0.193 1.141-0.52 1.585l0.005-0.007c-0.328 0.349-0.793 0.567-1.309 0.567-0.035 0-0.070-0.001-0.104-0.003l0.005 0zM43.105 28.216c0.741 0 1.117-0.501 1.117-1.508s-0.376-1.497-1.117-1.497c-0.742 0-1.117 0.496-1.117 1.497s0.37 1.509 1.117 1.509zM51.128 28.738v-2.75c0.002-0.022 0.003-0.047 0.003-0.073 0-0.191-0.056-0.368-0.153-0.517l0.002 0.004c-0.105-0.119-0.259-0.194-0.429-0.194-0.017 0-0.033 0.001-0.050 0.002l0.002-0c-0.434 0.008-0.836 0.141-1.174 0.362l0.008-0.005c0.003 0.041 0.003 0.082 0 0.122v3.049h-0.784v-2.75c0.001-0.019 0.002-0.042 0.002-0.064 0-0.193-0.056-0.374-0.153-0.526l0.002 0.004c-0.105-0.119-0.258-0.194-0.429-0.194-0.017 0-0.033 0.001-0.050 0.002l0.002-0c-0.432 0.003-0.833 0.134-1.167 0.356l0.008-0.005v3.197h-0.784v-4.049h0.656l0.080 0.41c0.409-0.312 0.921-0.509 1.477-0.533l0.005-0c0.035-0.004 0.075-0.007 0.116-0.007 0.389 0 0.725 0.224 0.887 0.55l0.003 0.006c0.433-0.343 0.986-0.554 1.587-0.564l0.002-0c0.023-0.002 0.050-0.003 0.077-0.003 0.298 0 0.568 0.119 0.765 0.312l-0-0c0.204 0.255 0.302 0.58 0.27 0.906v2.974l-0.784-0.022zM53.071 30.38v-5.691h0.657l0.074 0.416c0.349-0.329 0.821-0.532 1.34-0.533h0c0.025-0.002 0.054-0.002 0.083-0.002 0.454 0 0.86 0.207 1.127 0.533l0.002 0.003c0.317 0.444 0.474 0.983 0.445 1.529 0.003 0.044 0.004 0.095 0.004 0.146 0 0.546-0.178 1.051-0.48 1.459l0.005-0.007c-0.279 0.361-0.712 0.592-1.199 0.592-0.016 0-0.032-0-0.048-0.001l0.002 0c-0.010 0-0.022 0-0.035 0-0.462 0-0.881-0.178-1.194-0.47l0.001 0.001v2.025h-0.784zM54.92 25.211c-0.401 0.005-0.769 0.142-1.063 0.371l0.004-0.003v2.222c0.301 0.242 0.673 0.376 1.059 0.383 0.731 0 1.091-0.495 1.091-1.481 0.004-0.045 0.006-0.097 0.006-0.15 0-0.36-0.101-0.696-0.275-0.983l0.005 0.008c-0.172-0.227-0.442-0.371-0.745-0.371-0.029 0-0.057 0.001-0.085 0.004l0.004-0zM60.13 28.738l-0.063-0.415c-0.186 0.163-0.4 0.291-0.63 0.379-0.203 0.085-0.44 0.136-0.687 0.138h-0.001c-0.019 0.001-0.041 0.002-0.063 0.002-0.324 0-0.618-0.124-0.838-0.328l0.001 0.001c-0.207-0.206-0.335-0.491-0.335-0.806 0-0.020 0.001-0.041 0.002-0.061l-0 0.003c-0.001-0.014-0.001-0.031-0.001-0.047 0-0.354 0.158-0.67 0.407-0.884l0.002-0.001c0.281-0.217 0.639-0.348 1.027-0.348 0.030 0 0.060 0.001 0.090 0.002l-0.004-0c0.358 0.005 0.702 0.056 1.030 0.145l-0.029-0.007v-0.533c0.002-0.023 0.004-0.050 0.004-0.077 0-0.204-0.076-0.39-0.2-0.531l0.001 0.001c-0.157-0.113-0.354-0.181-0.566-0.181-0.034 0-0.067 0.002-0.1 0.005l0.004-0c-0.503 0.006-0.982 0.098-1.428 0.26l0.030-0.010v-0.555c0.202-0.105 0.436-0.187 0.684-0.232l0.015-0.002c0.247-0.054 0.53-0.085 0.82-0.085 0.004 0 0.007 0 0.011 0h-0.001c0.040-0.003 0.086-0.005 0.133-0.005 0.368 0 0.709 0.12 0.984 0.323l-0.005-0.003c0.222 0.219 0.359 0.524 0.359 0.86 0 0.035-0.002 0.070-0.004 0.104l0-0.004v2.893h-0.646zM58.939 28.242c0.418-0.017 0.798-0.169 1.099-0.413l-0.004 0.003v-0.81c-0.252-0.067-0.542-0.106-0.841-0.106h-0c-0.598 0-0.895 0.234-0.895 0.692-0.001 0.013-0.002 0.029-0.002 0.045 0 0.164 0.063 0.313 0.166 0.425l-0-0c0.131 0.116 0.302 0.175 0.477 0.165zM64.664 28.738v-2.707c0.002-0.022 0.003-0.047 0.003-0.073 0-0.206-0.065-0.397-0.175-0.553l0.002 0.003c-0.12-0.123-0.288-0.2-0.473-0.2-0.020 0-0.039 0.001-0.058 0.003l0.002-0c-0.462 0.007-0.888 0.158-1.236 0.409l0.006-0.004v3.122h-0.784v-4.049h0.657l0.079 0.448c0.432-0.346 0.985-0.558 1.588-0.565h0.001c0.026-0.002 0.057-0.003 0.087-0.003 0.308 0 0.588 0.119 0.798 0.313l-0.001-0.001c0.211 0.244 0.317 0.562 0.297 0.884v2.974h-0.794zM69.864 24.689l-1.833 4.758c-0.097 0.3-0.268 0.573-0.498 0.788-0.209 0.166-0.47 0.251-0.736 0.24-0.004 0-0.009 0-0.013 0-0.216 0-0.422-0.041-0.612-0.115l0.011 0.004v-0.566c0.147 0.037 0.298 0.055 0.45 0.054 0.012 0.001 0.025 0.001 0.039 0.001 0.162 0 0.311-0.057 0.428-0.152l-0.001 0.001c0.143-0.15 0.247-0.333 0.302-0.532l0.154-0.405-1.621-4.087h0.843l1.159 3.315 1.118-3.315h0.811v0.010zM15.739 8.324h-13.456v-0.075c0.048-0.476 0.158-0.944 0.328-1.391 0.588-1.695 1.72-3.076 3.182-3.967l0.033-0.019c0.899-0.522 1.979-0.829 3.13-0.829 0.076 0 0.152 0.001 0.227 0.004l-0.011-0c0.88-0.005 1.752 0.163 2.568 0.496 0.811 0.329 1.505 0.783 2.095 1.345l-0.003-0.002c0.571 0.548 1.039 1.198 1.375 1.921l0.016 0.039c0.334 0.699 0.53 1.519 0.53 2.385 0 0.004 0 0.009 0 0.013v-0.001l-0.016 0.080zM9.293 0.001c-0.036-0.001-0.079-0.001-0.122-0.001-1.307 0-2.55 0.273-3.676 0.764l0.059-0.023c-1.149 0.514-2.127 1.213-2.941 2.069l-0.004 0.004c-0.816 0.867-1.471 1.896-1.911 3.032l-0.022 0.064c-0.429 1.124-0.678 2.424-0.678 3.782 0 0.038 0 0.076 0.001 0.114l-0-0.006c-0.001 0.042-0.001 0.091-0.001 0.14 0 1.383 0.245 2.708 0.694 3.935l-0.025-0.080c0.443 1.21 1.091 2.247 1.911 3.122l-0.005-0.005c0.82 0.862 1.811 1.553 2.919 2.020l0.057 0.021c1.104 0.462 2.387 0.73 3.732 0.73 0.047 0 0.094-0 0.14-0.001l-0.007 0c0.036 0 0.078 0.001 0.121 0.001 1.612 0 3.143-0.343 4.525-0.961l-0.070 0.028c1.433-0.677 2.602-1.709 3.428-2.984l0.019-0.032-1.668-1.412c-0.652 1.028-1.548 1.846-2.61 2.386l-0.038 0.017c-1.056 0.566-2.31 0.901-3.642 0.906h-0.002c-1.234 0.050-2.46-0.235-3.548-0.826-0.873-0.516-1.603-1.179-2.179-1.962l-0.014-0.020c-0.496-0.672-0.884-1.459-1.116-2.311l-0.012-0.050c-0.173-0.593-0.284-1.278-0.307-1.985l-0-0.013v-0.074h15.716v-1.657c-0.009-1.15-0.221-2.248-0.604-3.262l0.021 0.065c-0.394-1.087-0.96-2.022-1.675-2.822l0.007 0.008c-0.747-0.822-1.648-1.49-2.659-1.961l-0.051-0.021c-1.057-0.472-2.29-0.748-3.587-0.748-0.063 0-0.125 0.001-0.188 0.002l0.009-0v0.005zM36.502 8.325h-13.451v-0.075c0.048-0.476 0.158-0.944 0.328-1.391 0.278-0.796 0.653-1.486 1.121-2.102l-0.014 0.019c0.578-0.762 1.282-1.394 2.085-1.878l0.033-0.019c0.897-0.522 1.974-0.83 3.122-0.83 0.079 0 0.157 0.001 0.236 0.004l-0.011-0c0.878-0.005 1.749 0.163 2.564 0.496 0.821 0.325 1.525 0.779 2.121 1.345l-0.003-0.003c0.552 0.549 1.003 1.199 1.324 1.92l0.016 0.040c0.348 0.751 0.529 1.569 0.529 2.398v0.075zM30.062 0.001c-1.285-0.017-2.56 0.235-3.744 0.741-1.145 0.513-2.12 1.21-2.93 2.064l-0.004 0.004c-0.818 0.866-1.473 1.895-1.911 3.032l-0.022 0.064c-0.433 1.122-0.684 2.42-0.684 3.777 0 0.041 0 0.083 0.001 0.124l-0-0.006c-0 0.040-0.001 0.087-0.001 0.134 0 1.384 0.243 2.712 0.689 3.943l-0.026-0.081c0.447 1.209 1.097 2.247 1.916 3.123l-0.005-0.005c0.82 0.862 1.81 1.553 2.919 2.020l0.057 0.021c1.103 0.462 2.385 0.73 3.729 0.73 0.048 0 0.096-0 0.144-0.001l-0.007 0c0.036 0 0.078 0.001 0.121 0.001 1.612 0 3.143-0.343 4.525-0.961l-0.070 0.028c1.429-0.678 2.595-1.709 3.417-2.984l0.019-0.032-1.668-1.412c-0.656 1.032-1.563 1.852-2.636 2.386l-0.038 0.017c-1.056 0.566-2.31 0.901-3.642 0.906h-0.002c-1.235 0.050-2.461-0.235-3.548-0.826-0.873-0.516-1.602-1.179-2.178-1.962l-0.014-0.020c-0.493-0.672-0.875-1.46-1.101-2.312l-0.011-0.049c-0.173-0.593-0.284-1.278-0.307-1.985l-0-0.013v-0.074h15.738v-1.657c-0.004-1.148-0.21-2.246-0.583-3.263l0.021 0.066c-0.394-1.087-0.96-2.022-1.675-2.822l0.007 0.008c-0.747-0.821-1.646-1.488-2.655-1.961l-0.051-0.022c-1.059-0.472-2.295-0.748-3.595-0.748-0.060 0-0.12 0.001-0.18 0.002l0.009-0-0.025 0.005zM59.505 17.634c-1.069 0.014-2.129-0.197-3.113-0.619-0.896-0.392-1.705-0.96-2.377-1.673-0.641-0.69-1.149-1.513-1.478-2.422l-0.016-0.050c-0.325-0.902-0.514-1.942-0.514-3.027s0.188-2.125 0.533-3.091l-0.020 0.064c0.346-0.961 0.854-1.785 1.498-2.483l-0.004 0.005c0.659-0.695 1.449-1.258 2.331-1.65l0.046-0.018c0.92-0.391 1.99-0.618 3.114-0.618s2.194 0.227 3.167 0.638l-0.054-0.020c0.929 0.402 1.719 0.964 2.369 1.658l0.004 0.004c0.648 0.692 1.16 1.519 1.489 2.435l0.015 0.049c0.684 1.959 0.684 4.094 0 6.053-0.347 0.959-0.857 1.782-1.503 2.477l0.004-0.004c-0.658 0.698-1.448 1.262-2.331 1.655l-0.046 0.018c-0.984 0.422-2.044 0.633-3.113 0.619zM59.505 0.001c-0.019-0-0.042-0-0.065-0-1.395 0-2.727 0.272-3.945 0.766l0.070-0.025c-1.21 0.48-2.242 1.173-3.097 2.040l-0.001 0.001c-0.845 0.871-1.526 1.906-1.989 3.053l-0.023 0.064c-0.453 1.133-0.717 2.446-0.717 3.821 0 0.043 0 0.086 0.001 0.129l-0-0.007c-0 0.032-0.001 0.070-0.001 0.108 0 1.384 0.267 2.706 0.751 3.917l-0.025-0.071c0.486 1.211 1.167 2.247 2.014 3.12l-0.002-0.002c0.855 0.864 1.883 1.555 3.027 2.019l0.061 0.022c1.14 0.462 2.462 0.73 3.847 0.73 0.034 0 0.069-0 0.103-0l-0.005 0c0.032 0 0.071 0.001 0.109 0.001 1.376 0 2.689-0.268 3.891-0.755l-0.069 0.025c1.208-0.486 2.24-1.178 3.098-2.042l0-0c0.86-0.865 1.549-1.902 2.011-3.054l0.022-0.062c0.459-1.174 0.726-2.533 0.726-3.954s-0.266-2.78-0.751-4.030l0.026 0.076c-0.489-1.213-1.177-2.249-2.034-3.119l0.001 0.001c-0.862-0.857-1.894-1.545-3.041-2.008l-0.062-0.022c-1.132-0.462-2.446-0.731-3.823-0.731-0.037 0-0.075 0-0.112 0.001l0.006-0v-0.010zM41.518 19.195h2.283v-10.21c-0.007-0.885 0.116-1.767 0.365-2.616 0.248-0.82 0.636-1.531 1.141-2.141l-0.008 0.010c0.517-0.611 1.164-1.096 1.9-1.415l0.033-0.013c0.852-0.361 1.77-0.542 2.695-0.533v-2.132c-2.648 0.054-4.739 0.874-6.185 2.43-2.377 2.552-2.224 6.262-2.224 6.299v10.321z"></path>
</symbol>
</defs>
</svg>
